<svg width="209" height="460" viewBox="0 0 209 460" fill="none" xmlns="http://www.w3.org/2000/svg">
<path d="M102.418 180.568C107.809 187.064 112.207 194.359 115.335 202.188C115.721 203.173 116.135 204.139 116.494 205.132L117.441 208.159C117.745 209.171 118.095 210.165 118.352 211.186L119.051 214.277C119.263 215.308 119.548 216.329 119.695 217.378L120.128 220.524L120.339 222.097C120.413 222.612 120.477 223.137 120.514 223.716C120.597 224.848 120.643 226.016 120.615 227.24C120.56 229.236 120.321 231.398 119.557 233.708C119.153 234.867 118.61 236.044 117.883 237.194C117.129 238.335 116.19 239.402 115.105 240.304L115.022 240.368C112.556 242.438 108.885 242.116 106.815 239.651C105.721 238.354 105.297 236.688 105.509 235.124C106.217 229.88 107.229 224.673 108.527 219.53C110.643 211.039 113.853 202.731 118.26 194.966C122.695 187.22 128.417 180.099 135.464 174.22C142.502 168.415 150.681 163.981 159.55 161.322C168.428 158.746 178.079 158.074 187.444 160.006C191.17 160.77 193.571 164.422 192.799 168.148C192.357 170.283 190.977 171.976 189.183 172.896L189.054 172.96C185.954 174.524 182.651 175.472 179.449 175.95C176.239 176.438 173.147 176.465 170.194 176.318C167.241 176.171 164.426 175.821 161.721 175.435C159.025 175.039 156.459 174.653 153.662 174.147C149.917 173.448 145.943 172.528 141.913 170.826C139.908 169.979 137.902 168.921 135.989 167.624C134.075 166.318 132.29 164.79 130.745 163.144C127.644 159.822 125.363 156.069 123.624 152.297C121.913 148.525 120.671 144.679 119.769 140.916C116.043 125.847 116.319 109.885 120.579 94.9441C121.683 91.0525 125.731 88.7985 129.622 89.9025C131.481 90.4361 132.98 91.6505 133.9 93.1869C136.301 97.1889 137.277 101.706 137.396 105.772C137.525 109.876 136.899 113.666 135.998 117.208C135.556 119.002 134.986 120.658 134.443 122.332C133.836 123.988 133.238 125.644 132.52 127.245C131.131 130.474 129.521 133.612 127.672 136.583C120.349 148.525 109.631 158.442 96.8703 164.496C88.7283 168.397 79.6663 170.264 70.9171 170.467C66.7219 170.577 63.2627 169.952 60.5487 169.004C59.8679 168.765 59.2331 168.516 58.6443 168.25C58.0555 167.964 57.5127 167.67 57.0067 167.366C55.9947 166.778 55.1575 166.115 54.4675 165.425C52.4527 163.429 52.8851 161.773 54.9183 160.669C56.9607 159.592 60.5947 159.013 65.5351 158.534C71.7911 157.955 78.5071 156.777 84.6711 154.854C90.7247 153.005 96.4011 150.08 101.498 146.326C106.604 142.563 111.047 137.871 114.691 132.655C118.315 127.42 121.057 121.587 122.796 115.524C123.633 112.562 124.121 109.59 124.056 106.904C124.001 104.208 123.375 101.89 122.225 100.16L133.661 98.6517C132.585 103.031 131.839 107.502 131.6 111.992C131.085 120.308 132.217 128.846 133.606 136.721C134.572 142.333 136.292 147.623 139.08 151.69C140.478 153.723 142.107 155.37 144.002 156.658C145.943 157.946 148.261 158.939 150.856 159.703C153.459 160.466 156.302 161.009 159.311 161.497C162.356 161.994 165.383 162.481 168.225 162.776C173.948 163.392 179.192 163.153 183.185 161.202L184.62 172.785L182.623 172.408L181.63 172.215L180.618 172.095L178.594 171.847L176.551 171.746C171.979 171.552 167.305 172.104 162.77 173.356C158.234 174.607 153.846 176.511 149.743 178.931C145.649 181.35 141.84 184.285 138.463 187.634C135.059 191.001 132.033 194.801 129.401 198.876C122.253 209.916 118.021 222.99 116.264 236.366L108.103 231.969C108.471 231.647 108.821 231.27 109.097 230.534C109.391 229.834 109.575 228.841 109.649 227.746C109.723 226.651 109.677 225.428 109.557 224.176L108.987 220.193C108.858 218.85 108.462 217.562 108.177 216.237L107.726 214.268C107.588 213.606 107.331 212.98 107.137 212.327C106.705 211.048 106.346 209.742 105.868 208.472L104.313 204.709C102.05 199.778 99.2991 195.031 95.9779 190.688C92.6107 186.383 88.8019 182.408 84.5975 178.885C79.1511 174.414 73.3367 170.724 67.4027 167.744C67.0347 167.55 66.6759 167.339 66.2987 167.155L65.1671 166.658C64.4127 166.318 63.6675 165.968 62.9223 165.637C61.4503 164.882 59.9139 164.376 58.4051 163.76C57.6507 163.456 56.8963 163.153 56.1511 162.849C55.4151 162.582 54.6791 162.334 53.9431 162.15C52.4803 161.773 50.9623 161.589 49.4627 162.104C49.1039 162.242 48.7727 162.398 48.5059 162.509C48.4967 162.509 48.4875 162.518 48.4875 162.527L48.4507 162.619C48.3403 162.914 48.3679 163.272 48.4875 163.558C48.6071 163.852 48.7911 164.091 48.9935 164.294C49.4075 164.689 49.9043 164.947 50.4655 165.03C51.0267 165.122 51.5971 164.974 52.0111 164.846C52.4159 164.708 52.7103 164.616 52.8759 164.735C53.0415 164.836 53.0967 165.158 52.8759 165.692C52.6367 166.207 51.9651 166.962 50.9439 167.348C49.9411 167.725 48.7727 167.817 47.4663 167.357C46.8131 167.109 46.0771 166.713 45.3595 165.885C45.1755 165.664 45.0099 165.444 44.8535 165.168C44.6971 164.882 44.5499 164.588 44.4303 164.266C44.1911 163.594 44.0899 162.858 44.1451 162.104C44.1911 161.368 44.4579 160.706 44.8811 160.163L45.4791 159.381C46.2519 158.378 47.5307 157.384 49.0211 156.805C51.0267 156.014 52.8575 155.866 54.4675 155.857C56.0867 155.857 57.5403 156.023 58.7823 156.225C60.0795 156.428 61.3859 156.63 62.6923 156.842L63.6767 157.007L64.6427 157.246L66.5747 157.743C71.7819 158.985 76.7683 161.129 81.5707 163.585C89.4091 167.78 96.3367 173.871 102.188 180.614C102.252 180.587 102.317 180.568 102.399 180.541L102.418 180.568Z" fill="#E5E5E5" fill-opacity="0.5"/>
<path d="M-18.9391 319.553L-14.8267 321.862L-10.8707 324.429L-9.88631 325.073L-8.93871 325.781L-7.0527 327.198C-6.42709 327.676 -5.79229 328.136 -5.17589 328.633L-3.39108 330.179C-0.962288 332.184 1.22731 334.466 3.41691 336.729L6.49892 340.308C7.51092 341.513 8.39409 342.81 9.35089 344.062C13.0033 349.168 16.0945 354.632 18.5601 360.355C20.9613 366.105 22.7737 372.066 23.9789 378.148C24.2549 379.767 24.5861 381.377 24.7977 383.014L25.3405 387.918L25.5889 392.849C25.6717 394.496 25.5705 396.143 25.5613 397.79C25.3497 404.368 24.4205 410.936 22.7829 417.321L21.5041 421.82C20.6301 424.884 17.4377 426.659 14.3833 425.785C11.8533 425.068 10.1973 422.758 10.1973 420.256V419.971C10.1973 405.499 10.1329 390.558 12.8929 375.535C14.2821 368.028 16.4073 360.557 19.5445 353.39C22.6725 346.242 26.8401 339.36 32.2681 333.399C37.7053 327.41 44.2557 322.58 51.1649 318.844C58.1017 315.137 65.3789 312.404 72.6929 310.325C76.3545 309.286 80.0253 308.402 83.7145 307.62C87.4037 306.848 91.1941 306.167 95.1041 305.744C99.0049 305.311 103.044 305.136 107.165 305.412C111.278 305.661 115.501 306.443 119.594 307.786C123.293 309 125.308 312.984 124.093 316.692C123.412 318.771 121.858 320.316 119.962 321.062L119.834 321.108C113.338 323.619 106.531 324.585 100.045 324.714C92.6201 324.861 85.5269 323.996 78.7097 322.994C71.8833 321.963 64.9465 320.721 58.0005 318.752C54.5321 317.786 51.0637 316.609 47.6505 315.192C44.2373 313.775 40.8517 312.138 37.6133 310.123C34.3841 308.117 31.2561 305.845 28.4041 303.195C25.5245 300.573 23.0129 297.629 20.7773 294.566C16.2877 288.42 13.0585 281.741 10.4549 275.052C7.8973 268.355 5.8733 261.593 4.3277 254.665C2.7821 247.747 1.7057 240.727 1.1629 233.652C1.02489 231.886 0.91449 230.12 0.840889 228.344C0.794891 227.461 0.767311 226.568 0.748917 225.685C0.730515 224.793 0.69371 223.965 0.712105 222.87C0.75811 220.782 0.905312 218.472 1.75171 215.749C2.18411 214.397 2.8373 212.906 3.8953 211.444C4.9349 209.981 6.4437 208.582 8.14569 207.653L8.1825 207.635C11.7153 205.703 16.1589 207 18.0909 210.533C18.5969 211.462 18.8821 212.483 18.9649 213.468C20.0689 227.516 18.8085 241.693 15.3585 255.318C11.8993 268.944 6.29649 281.998 -1.43151 293.848C-4.99191 299.276 -9.23309 304.465 -14.2379 308.982C-16.7403 311.236 -19.4359 313.315 -22.2879 315.146C-25.1399 316.986 -28.2035 318.587 -31.3315 319.856C-37.3667 322.285 -42.8407 322.92 -47.2107 322.543C-51.5991 322.175 -54.8651 320.896 -57.0639 319.387C-60.2655 317.115 -59.5295 315.477 -56.7327 314.622C-55.3159 314.116 -53.3563 313.775 -50.9091 313.242C-48.4619 312.708 -45.5363 311.99 -42.1967 310.886C-37.9739 309.442 -33.7511 307.326 -29.8687 304.584C-25.9495 301.834 -22.3063 298.485 -19.0495 294.842C-14.4035 289.662 -10.4475 283.599 -7.0343 277.251C-3.6395 270.894 -0.805901 264.215 1.2825 257.306C3.3801 250.396 4.88889 243.294 5.6433 236.118C6.39769 228.942 6.47131 221.702 5.86411 214.526L14.4385 219.024C14.3925 218.914 14.2913 218.84 14.5857 219.135C14.6133 219.135 14.5949 219.172 14.5857 219.172C14.5857 219.218 14.5489 219.227 14.5213 219.3C14.4017 219.54 14.2177 220.082 14.1257 220.818C14.0245 221.545 13.9693 222.419 13.9877 223.376L14.0981 226.66C14.3189 231.122 14.7605 235.575 15.4137 239.991C16.7569 248.814 18.9833 257.499 22.0745 265.834C24.3101 271.842 27.0333 277.674 30.3637 282.771C32.0289 285.32 33.8137 287.712 35.7549 289.855C36.7393 290.913 37.6961 291.962 38.7633 292.9C39.2969 293.37 39.7937 293.876 40.3365 294.326C40.8885 294.777 41.4313 295.237 41.9741 295.688C46.6385 299.377 52.2137 302.238 58.2581 304.345C64.2841 306.489 70.7609 307.915 77.3665 309.074C84.0365 310.196 90.6881 311.172 97.0637 311.319C103.439 311.466 109.594 310.758 115.068 308.669L115.289 320.445C103.835 316.544 89.6301 319.442 76.2165 322.736C68.9945 324.604 62.0209 327.152 55.6913 330.63C49.3525 334.107 43.7221 338.523 39.2417 344.016C34.7245 349.499 31.2285 355.93 28.6341 362.774C26.0213 369.638 24.3377 376.878 23.2613 384.321C21.5869 395.913 21.3937 407.91 21.2189 420.072L11.0345 418.398C17.5941 399.179 15.3493 376.979 5.5697 358.938C4.93491 357.825 4.3645 356.666 3.6653 355.589L1.57691 352.36C0.868507 351.293 0.0496979 350.299 -0.704704 349.269C-1.1003 348.763 -1.45909 348.229 -1.87309 347.742L-3.13348 346.297C-4.75269 344.31 -6.62949 342.553 -8.43269 340.74C-10.3831 339.075 -12.2783 337.327 -14.3851 335.855C-15.4155 335.082 -16.4367 334.3 -17.5407 333.629C-18.6263 332.939 -19.6935 332.212 -20.8067 331.55L-24.2015 329.673C-25.3239 329.029 -26.5291 328.55 -27.6883 327.98C-32.3895 325.846 -37.2931 324.052 -42.3531 322.929C-54.8283 319.985 -67.4415 319.948 -79.0335 322.175L-79.1623 317.179C-71.7471 319.433 -64.1019 320.123 -56.6867 319.544C-52.3811 319.176 -50.0903 319.35 -50.0443 320.445C-50.0167 321.448 -52.3535 323.454 -57.6619 324.852C-65.0495 326.747 -73.1087 327.115 -81.0667 325.671C-84.3511 325.073 -86.5315 321.926 -85.9335 318.633C-85.5195 316.37 -83.9003 314.631 -81.8579 313.968L-81.3795 313.812C-73.7435 311.337 -65.6199 310.114 -57.5239 310.095C-50.9459 310.031 -44.2851 310.951 -37.8267 312.616C-31.3591 314.281 -25.0755 316.692 -19.1323 319.709C-19.0679 319.663 -19.0035 319.626 -18.9299 319.58L-18.9391 319.553Z" fill="#E5E5E5" fill-opacity="0.5"/>
</svg>
