<svg width="32" height="32" viewBox="0 0 32 32" fill="none" xmlns="http://www.w3.org/2000/svg">
<path fill-rule="evenodd" clip-rule="evenodd" d="M31.96 13.9198C27.4 14.6718 22.84 15.0478 18.28 16.1758C25.88 22.5678 30.44 25.9518 31.58 25.5758C30.82 26.7038 29.68 27.4558 28.92 28.5838C25.5 24.4478 20.94 21.4398 17.14 17.6798C16.38 21.4398 16.76 27.0798 16.76 30.8398C15.24 30.8398 14.48 30.8398 12.96 31.2158C13.72 27.8318 14.48 22.9438 15.62 17.3038C10.3 19.1838 6.12004 21.4398 2.32004 24.0718C1.94004 21.4398 0.800039 21.0638 0.0400391 18.8078C6.50004 18.0558 11.82 16.9278 15.24 15.4238C11.82 12.7918 7.64004 10.1598 4.60004 7.15179C5.74004 6.02379 7.64004 4.51979 8.40004 3.01579C11.06 6.39979 12.96 10.5358 16 13.9198C16.38 10.1598 16.76 5.64779 17.14 0.383789C18.66 0.759789 20.18 0.383789 21.7 0.383789L18.28 14.2958C25.12 11.2878 29.68 9.03179 31.2 7.90379C31.58 9.40779 31.2 12.4158 31.96 13.9198Z" fill="#FCA311"/>
</svg>
