<svg width="36" height="37" viewBox="0 0 36 37" fill="none" xmlns="http://www.w3.org/2000/svg">
<g clip-path="url(#clip0_177_208)">
<mask id="mask0_177_208" style="mask-type:luminance" maskUnits="userSpaceOnUse" x="0" y="0" width="36" height="37">
<path d="M36 0.5H0V36.5H36V0.5Z" fill="white"/>
</mask>
<g mask="url(#mask0_177_208)">
<path d="M18 29.75C17.5093 29.7506 17.0243 29.6465 16.577 29.4447C16.1298 29.243 15.7306 28.9482 15.4065 28.58L0.689934 11.852C0.224799 11.2977 -0.00500125 10.5834 0.0496733 9.86183C0.104348 9.14027 0.439156 8.46875 0.982509 7.99085C1.52586 7.51293 2.23463 7.26657 2.95725 7.30445C3.67989 7.34232 4.35901 7.66142 4.84944 8.1935L17.718 22.8215C17.7531 22.8617 17.7964 22.8938 17.8452 22.9158C17.8938 22.9379 17.9466 22.9493 18 22.9493C18.0534 22.9493 18.1061 22.9379 18.1548 22.9158C18.2034 22.8938 18.2467 22.8617 18.282 22.8215L31.1505 8.1935C31.3878 7.91064 31.6792 7.67808 32.0077 7.50948C32.3363 7.3409 32.6952 7.23968 33.0634 7.21178C33.4315 7.18388 33.8018 7.22985 34.1519 7.34703C34.5019 7.4642 34.8252 7.65017 35.1025 7.89404C35.3797 8.13791 35.6055 8.43474 35.7664 8.7671C35.9272 9.09945 36.0201 9.46061 36.0395 9.82935C36.0588 10.1981 36.0042 10.567 35.879 10.9143C35.7537 11.2617 35.5602 11.5805 35.31 11.852L20.598 28.574C20.2731 28.9431 19.8735 29.2389 19.4256 29.4416C18.9776 29.6444 18.4917 29.7495 18 29.75Z" fill="#E5E5E5"/>
</g>
</g>
<defs>
<clipPath id="clip0_177_208">
<rect width="36" height="36" fill="white" transform="translate(0 0.5)"/>
</clipPath>
</defs>
</svg>
