<svg width="162" height="162" viewBox="0 0 162 162" fill="none" xmlns="http://www.w3.org/2000/svg">
<g id="Group1">
<path id="Ellipse2" d="M162 81C162 125.735 125.735 162 81 162C36.2649 162 0 125.735 0 81C0 36.2649 36.2649 0 81 0C125.735 0 162 36.2649 162 81ZM37.5527 81C37.5527 104.995 57.0047 124.447 81 124.447C104.995 124.447 124.447 104.995 124.447 81C124.447 57.0047 104.995 37.5527 81 37.5527C57.0047 37.5527 37.5527 57.0047 37.5527 81Z" fill="#FCA311" fill-opacity="0.71"/>
<g id="Vector">
<path d="M137.916 80.7176C137.936 79.951 138.553 79.3665 139.32 79.3872C140.066 79.4073 140.65 80.0244 140.63 80.7909C140.609 81.5367 139.992 82.1213 139.247 82.1011C138.48 82.0804 137.895 81.4634 137.916 80.7176Z" fill="black"/>
<path d="M148.438 103.639L148.257 103.593C148.517 102.74 148.042 102.17 145.913 101.628L140.973 100.369C140.009 100.123 139.221 99.8585 138.589 99.5691C136.347 98.5488 135.601 96.6052 136.205 94.2354C136.829 91.7853 138.324 90.284 141.007 90.5826C142.152 90.7033 143.693 91.1173 144.758 91.3885L148.292 92.289C150.421 92.8313 151.111 92.5579 151.291 91.6841L151.472 91.7302L150.331 96.2087L150.15 96.1626C150.41 95.3093 149.935 94.7392 147.806 94.1968L143.89 93.1992C142.806 92.9229 141.802 92.6671 140.686 92.5113C138.863 92.282 137.312 92.9134 136.816 94.8614C136.431 96.4531 136.922 97.9683 138.296 98.8742C139.057 99.4104 140.081 99.7568 141.165 100.033L146.005 101.266C148.134 101.808 148.824 101.535 149.004 100.661L149.185 100.707L148.438 103.639Z" fill="black"/>
<path d="M131.952 102.646C129.979 101.679 129.267 101.814 128.912 102.632L128.744 102.55L130.734 98.4938L130.901 98.5759C130.471 99.3577 130.801 100.004 132.773 100.971L140.253 104.64C142.226 105.607 142.938 105.472 143.293 104.654L143.461 104.736C142.922 105.834 142.804 107.345 143.283 108.204L141.069 107.118C141.85 108.632 142.216 110.381 141.458 111.925C140.464 113.953 138.11 114.045 135.989 113.005C133.086 111.581 130.716 108.272 132.349 104.942C132.641 104.346 133.017 103.722 133.608 103.458L131.952 102.646ZM140.492 106.835L135.803 104.535C134.817 104.051 133.47 103.552 132.821 104.827C131.543 107.385 134.549 110.198 136.624 111.239C137.88 111.878 139.896 112.428 140.886 111.067C141.813 109.791 141.197 108.081 140.492 106.835Z" fill="black"/>
<path d="M131.828 124.585L130.941 123.016C133.351 122.906 134.865 122.056 135.444 120.28C136.036 118.487 134.682 116.404 132.372 115.363C130.157 114.369 127.237 114.532 125.853 116.813C124.991 118.242 124.986 120.224 126.169 122.019L126.055 122.167C124.494 120.185 124.384 117.332 125.999 115.227C126.831 114.142 127.995 113.442 129.246 113.174C130.796 112.822 132.509 113.143 133.873 114.19C136.34 116.082 136.718 119.743 134.851 122.176C134.094 123.163 133.065 123.993 131.828 124.585Z" fill="black"/>
<path d="M125.833 131.738C123.488 133.779 119.921 133.533 117.88 131.188C115.838 128.843 116.099 125.292 118.443 123.251C120.788 121.209 124.326 121.454 126.367 123.799C128.408 126.143 128.177 129.697 125.833 131.738ZM126.696 130.079C127.732 128.271 126.518 125.645 123.987 124.222C121.456 122.798 118.586 123.099 117.55 124.907C116.543 126.718 117.757 129.343 120.273 130.781C122.804 132.204 125.674 131.903 126.696 130.079Z" fill="black"/>
<path d="M103.172 133.854C103.192 133.178 103.626 132.693 104.167 132.432C105.288 131.893 106.124 132.341 106.902 133.048C108.731 134.698 109.861 137.19 111.662 138.876C112.914 140.045 113.99 139.366 114.595 137.994C114.844 137.414 115.003 136.739 115.095 136.166L112.848 131.497C111.895 129.518 111.252 129.184 110.467 129.608L110.386 129.439L114.457 127.48L114.538 127.648C113.717 127.997 113.576 128.709 114.529 130.688L116.272 134.311C117.225 136.291 117.878 136.644 118.663 136.22L118.744 136.388C117.642 136.918 116.615 138.033 116.461 139.004L115.383 136.764C115.091 138.261 114.556 139.921 113.212 140.568C112.334 140.991 111.334 140.92 110.345 140.108C110.116 139.919 109.906 139.721 109.678 139.486C109.396 141.002 108.842 142.671 107.497 143.318C106.638 143.732 105.62 143.67 104.631 142.858C102.626 141.224 100.975 137.603 99.0453 136.461C98.6505 136.214 97.9299 136.055 97.6614 136.644L97.4768 136.595C97.4776 135.928 97.9113 135.443 98.4529 135.183C99.592 134.634 100.429 135.083 101.206 135.789C103.016 137.448 104.147 139.94 105.966 141.618C107.218 142.786 108.294 142.107 108.88 140.744C109.111 140.219 109.249 139.646 109.35 139.138C107.764 137.325 106.367 134.662 104.76 133.711C104.346 133.473 103.644 133.305 103.357 133.903L103.172 133.854Z" fill="black"/>
<path d="M95.3966 138.511C94.8624 136.38 94.2991 135.923 93.4448 136.18L93.3994 135.999L97.7817 134.901L97.8271 135.082C96.9526 135.258 96.6716 135.927 97.2058 138.058L98.1836 141.957C98.7178 144.088 99.2861 144.565 100.14 144.309L100.186 144.489C98.9998 144.787 97.7689 145.672 97.4227 146.592L95.3966 138.511ZM99.0379 149.2C98.3142 149.381 97.565 148.95 97.3836 148.226C97.1971 147.482 97.654 146.748 98.3777 146.567C99.1014 146.385 99.8506 146.817 100.037 147.561C100.219 148.284 99.7616 149.019 99.0379 149.2Z" fill="black"/>
<path d="M79.8302 138.529C80.0866 137.903 80.6633 137.602 81.2619 137.549C82.5005 137.439 83.1258 138.153 83.6043 139.088C84.7352 141.276 84.9156 144.007 86.007 146.219C86.7676 147.753 88.014 147.497 89.0631 146.426C89.5012 145.971 89.8869 145.395 90.175 144.891L89.716 139.731C89.5214 137.542 89.0365 137.003 88.1526 137.123L88.136 136.937L92.6362 136.537L92.6527 136.723C91.7614 136.761 91.3793 137.377 91.5739 139.565L91.9301 143.57C92.1247 145.758 92.6114 146.318 93.4954 146.198L93.5119 146.384C92.294 146.492 90.9398 147.174 90.4541 148.029L90.2338 145.552C89.4338 146.851 88.3485 148.216 86.8622 148.348C85.892 148.435 84.9809 148.016 84.3414 146.908C83.0398 144.673 82.7699 140.702 81.3661 138.954C81.0629 138.586 80.4651 138.181 79.9858 138.64L79.8302 138.529Z" fill="black"/>
<path d="M73.8752 148.266C73.0118 148.156 72.2211 147.804 71.5979 147.286C70.9492 147.621 70.2572 147.804 69.5171 147.709C68.6743 147.601 67.9019 147.106 67.333 146.49L68.209 144.868C68.8456 146.098 69.8518 147.543 71.3005 146.997C70.3752 146.064 69.8777 144.726 70.0564 143.328C70.3665 140.902 72.5691 139.199 74.9949 139.509C75.9816 139.635 76.8646 140.082 77.5337 140.732C77.773 140.658 77.9917 140.582 78.1719 140.479C78.7769 140.16 79.0355 139.608 78.7771 139.178C77.9327 137.774 74.0956 139.352 71.3885 139.445C68.2392 139.565 66.9263 136.597 68.4536 134.619C69.9862 132.601 73.7496 132.58 76.0108 132.87C77.4704 133.056 80.0492 133.804 80.5304 135.432C80.7494 136.171 80.5152 137.185 79.779 137.551L79.7126 137.417C80.1557 137.056 79.746 136.502 79.4512 136.193C77.4729 134.018 71.6292 134.294 69.557 135.304C67.351 136.38 67.9442 138.44 71.0844 137.902C72.8358 137.603 75.0234 136.671 76.8608 136.843C78.2408 136.999 79.8271 137.829 79.4524 139.452C79.2571 140.326 78.5721 140.781 77.8079 141.039C78.5688 141.951 78.9767 143.173 78.8137 144.448C78.5036 146.873 76.301 148.577 73.8752 148.266ZM75.2671 147.838C76.6612 147.557 77.3994 145.541 76.9274 143.35C76.476 141.161 74.9791 139.632 73.603 139.937C72.2089 140.218 71.4707 142.234 71.9221 144.423C72.3967 146.594 73.891 148.143 75.2671 147.838Z" fill="black"/>
<path d="M63.1529 134.903L63.0758 135.072C62.2815 134.666 61.6454 135.015 60.7371 137.015L57.301 144.582C56.3928 146.582 56.5405 147.309 57.3691 147.64L57.292 147.81L47.5738 143.397L48.0752 140.188L48.245 140.265C48.1702 141.983 49.483 143.854 51.0115 144.548L54.4459 146.108L57.4192 139.56C56.1075 140.694 54.9034 140.489 53.6251 139.294C52.8462 138.553 52.0482 137.553 50.8342 138.322L50.7175 138.178C52.2074 136.601 53.5281 136.7 54.9316 138.02C55.7191 138.742 56.4879 139.706 57.6591 139.031L59.9984 133.88L56.6772 132.372C54.8279 131.532 52.1713 131.919 50.6848 133.338L50.5338 133.269L53.1518 130.361L63.1529 134.903Z" fill="black"/>
<path d="M43.6034 136.179L46.3073 127.177L39.6178 131.793C39.3222 131.988 39.1104 132.244 39.0159 132.585C38.9808 132.739 38.9168 132.898 38.8818 133.052C38.6958 133.66 38.9121 133.996 39.4439 134.358L39.3342 134.508C38.5297 133.923 37.323 133.045 36.5186 132.46L36.6283 132.309C37.1524 132.716 37.6659 132.68 38.2038 132.328L47.0433 126.2L48.2668 127.09L45.1955 137.337C45.0142 137.974 45.0629 138.471 45.6616 138.88L45.5519 139.031L42.2503 136.63L42.36 136.479C42.9177 136.91 43.39 136.895 43.6034 136.179Z" fill="black"/>
<path d="M30.5418 126.403C28.5878 124.286 29.1723 121.406 30.8158 119.917C32.7276 121.988 34.6956 124.12 36.6074 126.191C36.9588 125.838 37.2962 125.471 37.5925 125.028C38.949 123.014 39.2852 120.109 37.2727 118.357C36.0111 117.265 34.0595 116.923 32.0891 117.783L31.9626 117.646C34.1813 116.444 37.0114 116.821 38.8108 118.77C40.9053 121.039 40.7776 124.598 38.4934 126.706C36.2091 128.815 32.6363 128.672 30.5418 126.403ZM31.8069 121.541C29.9326 123.666 30.4727 126.298 32.2251 127.218C33.4457 127.869 35.0295 127.507 36.3192 126.429L31.8069 121.541Z" fill="black"/>
<path d="M27.916 104.429C28.5915 104.388 29.1127 104.777 29.4203 105.293C30.0567 106.362 29.6843 107.235 29.049 108.072C27.5678 110.04 25.1857 111.386 23.6655 113.329C22.6127 114.68 23.3844 115.692 24.8046 116.173C25.4046 116.37 26.0903 116.468 26.6695 116.509L31.1206 113.857C33.0079 112.733 33.2837 112.062 32.792 111.318L32.9523 111.222L35.2645 115.104L35.1043 115.199C34.6838 114.412 33.9625 114.336 32.0752 115.46L28.6211 117.518C26.7338 118.642 26.4402 119.323 26.9319 120.068L26.7717 120.163C26.1459 119.113 24.9439 118.188 23.9632 118.121L26.0997 116.848C24.5826 116.691 22.8813 116.305 22.1176 115.023C21.6191 114.186 21.601 113.184 22.3222 112.127C23.772 109.985 27.2329 108.02 28.199 105.997C28.3994 105.564 28.5047 104.85 27.8834 104.617L27.916 104.429Z" fill="black"/>
<path d="M18.3707 107.871C17.9883 106.886 16.8097 105.854 15.6025 105.722L15.5351 105.548L17.2159 104.896L16.2786 102.48L16.6264 102.346L17.5637 104.761L25.3305 101.746C27.2625 100.996 26.7858 99.8253 25.0639 99.2264L25.1274 99.0462C26.1638 99.3109 27.2645 99.684 27.6769 100.747C28.2018 102.099 27.1646 103.035 26.0054 103.485L18.2386 106.499L18.7185 107.736L18.3707 107.871Z" fill="black"/>
<path d="M22.1118 99.4337C24.1907 98.3765 25.6308 95.9753 25.1153 93.7545C24.8429 92.6262 24.1658 91.2058 22.8327 91.0354C21.9807 90.9278 21.2324 91.4765 20.9203 92.4589C20.5229 93.8213 20.8225 95.8353 20.6118 97.5595C20.4593 98.7824 20.0889 100.075 18.5919 100.408C17.2163 100.714 15.9616 99.465 15.3453 98.4132C14.9607 97.7345 14.6839 96.9681 14.5038 96.1589C14.1796 94.7024 14.1791 93.1738 14.5181 91.9306L16.3615 92.1997C15.6513 92.8249 14.6087 94.0548 14.8341 95.8306C14.9288 96.6376 15.2821 97.7479 15.8847 98.3569C16.7752 99.3052 18.2274 99.534 18.6585 97.8456C19.1681 95.8426 18.3511 93.0308 19.4722 91.295C20.2159 90.1528 21.9871 89.7161 23.2191 90.2912C24.4714 90.8617 25.1867 92.3586 25.4929 93.7342C25.9071 95.5953 25.7392 97.4161 24.9035 99.0034L22.1523 99.6158L22.1118 99.4337Z" fill="black"/>
<path d="M23.9425 82.2541C23.9514 83.0209 23.3573 83.6288 22.5906 83.6377C21.8446 83.6463 21.2366 83.0523 21.2277 82.2855C21.2191 81.5395 21.8131 80.9316 22.5592 80.9229C23.3259 80.9141 23.9338 81.5081 23.9425 82.2541Z" fill="black"/>
<path d="M12.6243 59.4579L12.8065 59.4977C12.5757 60.3594 13.07 60.913 15.2161 61.3821L20.1967 62.4707C21.1686 62.6832 21.9651 62.9209 22.6067 63.1884C24.8826 64.1314 25.694 66.0483 25.1718 68.4374C24.6319 70.9074 23.1896 72.459 20.4982 72.2525C19.3492 72.1711 17.7947 71.8101 16.7216 71.5756L13.1582 70.7967C11.0121 70.3276 10.332 70.6244 10.1822 71.5039L10 71.464L10.9869 66.9491L11.1691 66.9889C10.9383 67.8506 11.4325 68.4042 13.5787 68.8733L17.5267 69.7362C18.62 69.9752 19.6324 70.1965 20.7522 70.314C22.5826 70.4807 24.111 69.7965 24.5403 67.8326C24.8697 66.2287 24.3272 64.7313 22.9238 63.8729C22.1443 63.3631 21.1091 63.052 20.0158 62.813L15.1364 61.7465C12.9903 61.2774 12.3102 61.5742 12.1604 62.4537L11.9782 62.4138L12.6243 59.4579Z" fill="black"/>
<path d="M29.0386 60.0858C31.0456 60.9792 31.7527 60.8175 32.0772 59.9865L32.2476 60.0624L30.4104 64.1899L30.24 64.114C30.6402 63.3168 30.2871 62.6832 28.2801 61.7898L20.6689 58.4018C18.6619 57.5085 17.9548 57.6701 17.6303 58.5011L17.4599 58.4252C17.9571 57.3082 18.019 55.7931 17.5082 54.9532L19.7612 55.9562C18.9246 54.4722 18.4942 52.738 19.1937 51.1665C20.1124 49.1028 22.4608 48.9232 24.6192 49.884C27.5729 51.1987 30.0646 54.4175 28.556 57.8066C28.2863 58.4125 27.9345 59.0499 27.3536 59.3357L29.0386 60.0858ZM20.3482 56.2174L25.1194 58.3412C26.1229 58.7879 27.4883 59.2369 28.0887 57.9389C29.2707 55.3345 26.1622 52.6351 24.0501 51.6722C22.771 51.0802 20.7365 50.6056 19.7972 52.0023C18.919 53.3127 19.5977 54.9986 20.3482 56.2174Z" fill="black"/>
<path d="M28.3666 38.0977L29.3098 39.6326C26.9059 39.8309 25.4239 40.7354 24.9101 42.5314C24.3843 44.3443 25.8128 46.3768 28.1592 47.3326C30.4091 48.2453 33.3211 47.9759 34.6215 45.6457C35.43 44.1862 35.3628 42.206 34.1156 40.455L34.2237 40.303C35.8567 42.2266 36.0705 45.0737 34.5337 47.2359C33.7412 48.3508 32.6034 49.0931 31.3634 49.4067C29.8273 49.815 28.1041 49.5564 26.7021 48.5599C24.1683 46.7588 23.6563 43.1149 25.4333 40.6149C26.1537 39.6014 27.1515 38.7342 28.3666 38.0977Z" fill="black"/>
<path d="M34.2072 30.6044C36.4837 28.4876 40.0571 28.6175 42.1739 30.894C44.2908 33.1706 44.1468 36.7287 41.8702 38.8456C39.5936 40.9625 36.0496 40.8336 33.9327 38.5571C31.8159 36.2805 31.9306 32.7213 34.2072 30.6044ZM33.398 32.2907C32.4219 34.1322 33.721 36.7163 36.2972 38.0564C38.8734 39.3965 41.7325 39.0019 42.7087 37.1604C43.6555 35.3178 42.3563 32.7337 39.7953 31.3795C37.2192 30.0394 34.36 30.434 33.398 32.2907Z" fill="black"/>
<path d="M56.5867 27.7854C56.5923 28.4621 56.1769 28.9625 55.6454 29.2431C54.5457 29.8234 53.6929 29.4065 52.89 28.7288C51.0011 27.148 49.7793 24.6996 47.9174 23.0811C46.6227 21.96 45.5724 22.6784 45.019 24.0719C44.7909 24.6609 44.6575 25.3406 44.5867 25.9169L47.005 30.499C48.0304 32.4419 48.6862 32.7519 49.4549 32.2993L49.542 32.4643L45.5464 34.573L45.4593 34.4081C46.2668 34.0288 46.3808 33.3124 45.3555 31.3696L43.4789 27.8139C42.4535 25.8711 41.7881 25.5427 41.0193 25.9953L40.9322 25.8304C42.0136 25.2596 42.9988 24.107 43.1164 23.131L44.2772 25.3304C44.5129 23.8234 44.9859 22.1443 46.3055 21.4478C47.167 20.9932 48.1689 21.0268 49.1872 21.8017C49.4229 21.9819 49.6403 22.1718 49.877 22.3984C50.1031 20.8731 50.5944 19.1843 51.914 18.4878C52.7571 18.0428 53.7774 18.0668 54.7957 18.8417C56.8602 20.4001 58.6441 23.9579 60.6144 25.027C61.0182 25.2592 61.7442 25.3916 61.9906 24.7928L62.1769 24.8351C62.2008 25.502 61.7854 26.0025 61.2539 26.283C60.1358 26.8731 59.2831 26.4561 58.4802 25.7785C56.6097 24.188 55.3878 21.7396 53.5076 20.1308C52.2129 19.0097 51.1626 19.728 50.6275 21.1118C50.4167 21.6449 50.2996 22.2222 50.2181 22.7339C51.8697 24.4868 53.364 27.0961 55.0059 27.987C55.428 28.2095 56.1357 28.3516 56.4004 27.7432L56.5867 27.7854Z" fill="black"/>
<path d="M64.2593 22.7936C64.866 24.905 65.4445 25.3425 66.2896 25.0566L66.3411 25.2358L61.9988 26.4835L61.9473 26.3042C62.8153 26.098 63.0733 25.4201 62.4666 23.3087L61.3563 19.4445C60.7496 17.3331 60.1654 16.8757 59.3203 17.1616L59.2688 16.9824C60.444 16.6447 61.6439 15.7177 61.9585 14.7864L64.2593 22.7936ZM60.2552 12.2354C60.9723 12.0293 61.7358 12.4353 61.9418 13.1524C62.1536 13.8893 61.722 14.6387 61.005 14.8447C60.2879 15.0508 59.5243 14.6448 59.3126 13.9078C59.1065 13.1908 59.5381 12.4414 60.2552 12.2354Z" fill="black"/>
<path d="M79.5198 22.2218C79.2877 22.8573 78.7231 23.1802 78.1269 23.2565C76.8935 23.4141 76.2412 22.7245 75.7271 21.8082C74.5129 19.6652 74.2277 16.9438 73.052 14.775C72.2329 13.2709 70.9973 13.5751 69.9902 14.6859C69.5699 15.1574 69.2066 15.7471 68.9381 16.262L69.5951 21.4013C69.8737 23.5803 70.379 24.1008 71.2577 23.9466L71.2814 24.1316L66.7999 24.7046L66.7762 24.5196C67.6655 24.4477 68.0236 23.8169 67.745 21.6378L67.2351 17.6497C66.9565 15.4707 66.4486 14.9297 65.5699 15.0838L65.5463 14.8988C66.7591 14.7438 68.0861 14.01 68.5386 13.1373L68.854 15.6042C69.6034 14.2756 70.6354 12.8692 72.1155 12.68C73.0817 12.5565 74.0082 12.9395 74.6899 14.0223C76.0764 16.206 76.4988 20.1635 77.9687 21.8559C78.2859 22.2124 78.8988 22.5937 79.3602 22.1168L79.5198 22.2218Z" fill="black"/>
<path d="M85.3854 12.2352C86.2521 12.3156 87.0546 12.6398 87.6953 13.1364C88.3321 12.7792 89.0173 12.5722 89.7602 12.6412C90.6063 12.7197 91.3953 13.1884 91.9852 13.7843L91.1659 15.4358C90.4871 14.2281 89.4315 12.8188 88.0025 13.4147C88.9596 14.3152 89.5031 15.6353 89.3729 17.0385C89.1469 19.4736 87.0045 21.252 84.5695 21.026C83.579 20.9341 82.681 20.5177 81.9898 19.8916C81.7533 19.9737 81.5373 20.0577 81.3608 20.1662C80.7672 20.5066 80.5278 21.0672 80.801 21.488C81.6934 22.8612 85.4736 21.1516 88.1759 20.9653C91.3191 20.7367 92.734 23.657 91.276 25.6863C89.8142 27.7569 86.0538 27.9074 83.7839 27.6967C82.3187 27.5607 79.7156 26.9028 79.1783 25.2919C78.9339 24.5616 79.1328 23.5394 79.8559 23.1486L79.927 23.2801C79.4966 23.6564 79.9253 24.1957 80.2305 24.4946C82.283 26.6 88.1136 26.1213 90.1496 25.0406C92.317 23.8889 91.6529 21.85 88.5332 22.497C86.7932 22.8559 84.6392 23.8631 82.7969 23.7546C81.4123 23.6469 79.7983 22.8727 80.1166 21.2371C80.2815 20.3574 80.9504 19.8784 81.7052 19.5946C80.9132 18.7094 80.4633 17.502 80.582 16.2226C80.808 13.7876 82.9504 12.0091 85.3854 12.2352ZM84.0092 12.711C82.6257 13.0405 81.9576 15.0807 82.5052 17.2545C83.0321 19.4264 84.581 20.9022 85.9457 20.5501C87.3292 20.2207 87.9973 18.1805 87.4704 16.0086C86.9209 13.8554 85.3739 12.359 84.0092 12.711Z" fill="black"/>
<path d="M96.4424 25.1168L96.5132 24.9442C97.322 25.3205 97.9448 24.9486 98.7778 22.9159L101.929 15.226C102.762 13.1933 102.587 12.4722 101.747 12.1726L101.818 12L111.694 16.0473L111.313 19.273L111.14 19.2023C111.151 17.4821 109.769 15.6616 108.216 15.025L104.725 13.5947L101.998 20.249C103.267 19.0667 104.478 19.227 105.8 20.3734C106.606 21.0845 107.441 22.0537 108.625 21.2401L108.747 21.3797C107.317 23.011 105.994 22.9613 104.542 21.6944C103.728 21.0025 102.924 20.0682 101.778 20.786L99.633 26.0212L103.008 27.4044C104.887 28.1745 107.528 27.6888 108.96 26.2153L109.114 26.2781L106.606 29.282L96.4424 25.1168Z" fill="black"/>
<path d="M115.908 23.0444L113.536 32.139L120.052 27.2813C120.34 27.0757 120.542 26.8121 120.624 26.4676C120.654 26.3125 120.712 26.1518 120.741 25.9968C120.905 25.3824 120.676 25.0538 120.132 24.7123L120.236 24.5576C121.061 25.113 122.299 25.946 123.125 26.5014L123.02 26.6561C122.482 26.2687 121.97 26.324 121.445 26.6953L112.836 33.1419L111.581 32.2972L114.275 21.9452C114.433 21.3022 114.366 20.8075 113.753 20.4198L113.857 20.265L117.244 22.5444L117.14 22.6991C116.567 22.2885 116.096 22.321 115.908 23.0444Z" fill="black"/>
<path d="M129.398 32.3345C131.427 34.3789 130.948 37.2788 129.36 38.8264C127.374 36.8261 125.33 34.7671 123.344 32.7668C123.005 33.132 122.682 33.5118 122.402 33.9651C121.119 36.0267 120.889 38.9421 122.964 40.6203C124.264 41.6655 126.227 41.9364 128.165 41.0056L128.296 41.1379C126.122 42.4196 123.28 42.1455 121.412 40.2629C119.236 38.0715 119.234 34.5105 121.44 32.3203C123.647 30.1301 127.222 30.1431 129.398 32.3345ZM128.31 37.2399C130.106 35.0482 129.471 32.4374 127.686 31.5809C126.442 30.9756 124.873 31.3949 123.623 32.5187L128.31 37.2399Z" fill="black"/>
<path d="M133.013 54.4407C132.339 54.5035 131.805 54.1319 131.481 53.626C130.81 52.5794 131.153 51.6944 131.76 50.837C133.176 48.8212 135.512 47.3966 136.967 45.4044C137.974 44.0195 137.17 43.0337 135.734 42.6002C135.128 42.4228 134.44 42.3474 133.859 42.3256L129.498 45.123C127.649 46.309 127.396 46.9887 127.912 47.7164L127.755 47.8171L125.316 44.0142L125.473 43.9135C125.919 44.686 126.642 44.739 128.491 43.553L131.876 41.3822C133.725 40.1962 133.996 39.5053 133.479 38.7776L133.636 38.6769C134.297 39.7061 135.529 40.5902 136.511 40.6248L134.418 41.9676C135.939 42.0749 137.652 42.4042 138.458 43.6601C138.984 44.48 139.035 45.4812 138.349 46.5614C136.971 48.7503 133.577 50.8289 132.678 52.8826C132.492 53.322 132.411 54.0391 133.039 54.2515L133.013 54.4407Z" fill="black"/>
<path d="M142.455 50.6653C142.87 51.6372 144.083 52.6289 145.294 52.72L145.367 52.8915L143.709 53.6001L144.727 55.9822L144.384 56.1288L143.366 53.7467L135.705 57.0207C133.799 57.8352 134.315 58.9895 136.056 59.5301L135.999 59.7124C134.954 59.4827 133.842 59.1469 133.394 58.0987C132.824 56.7647 133.829 55.7943 134.972 55.3056L142.633 52.0315L142.112 50.8119L142.455 50.6653Z" fill="black"/>
<path d="M139.028 59.2753C136.987 60.4031 135.63 62.8522 136.221 65.054C136.532 66.1724 137.257 67.5688 138.595 67.6935C139.451 67.7718 140.18 67.1978 140.458 66.2053C140.809 64.8301 140.44 62.8275 140.592 61.0971C140.702 59.8697 141.028 58.5651 142.513 58.1809C143.877 57.8278 145.174 59.0335 145.826 60.0636C146.234 60.7287 146.536 61.4853 146.744 62.2878C147.118 63.7324 147.171 65.26 146.875 66.5141L145.023 66.3082C145.711 65.6591 146.711 64.3942 146.425 62.6272C146.303 61.824 145.912 60.7264 145.289 60.1384C144.366 59.2211 142.907 59.0422 142.534 60.7443C142.093 62.7636 143.006 65.5458 141.945 67.3189C141.241 68.4859 139.486 68.983 138.235 68.4504C136.964 67.9231 136.198 66.4516 135.844 65.0873C135.367 63.2415 135.472 61.4159 136.253 59.801L138.982 59.0948L139.028 59.2753Z" fill="black"/>
</g>
</g>
</svg>
