<svg width="308" height="196" viewBox="0 0 308 196" fill="none" xmlns="http://www.w3.org/2000/svg">
<path fill-rule="evenodd" clip-rule="evenodd" d="M161.186 1.92003C160.403 2.85779 159.641 3.76927 158.804 4.6028C156.914 6.2739 155.04 7.95979 153.168 9.6437C148.439 13.8964 143.725 18.1369 138.821 22.0935C114.027 41.4252 89.2325 60.757 64.6236 80.0888L16.8859 117.648C16.1458 118.2 15.4056 118.752 14.8505 119.305C13.5553 120.409 12.0751 121.146 10.4098 119.673C8.92958 118.384 9.29964 116.543 10.2248 115.254C11.335 113.413 12.8152 111.572 14.2955 110.099C15.1898 109.29 16.0842 108.477 16.9797 107.663C22.1979 102.92 27.4562 98.1399 32.9834 93.8972C72.9499 63.3346 113.101 32.9561 154.733 4.6028C156.954 2.94579 159.359 1.4729 161.764 0C161.764 0 161.949 0.184112 162.504 0.368224C162.047 0.888196 161.613 1.40817 161.186 1.92003ZM307.198 40.3206C306.55 40.6888 305.903 41.103 305.255 41.5173C304.607 41.9315 303.96 42.3458 303.312 42.714C276.298 58.5477 249.654 74.9337 223.564 92.4243C183.598 118.936 144.002 146.185 106.255 175.643C99.2243 181.166 92.3782 186.69 85.5321 192.213C84.422 193.134 83.4968 193.87 82.3866 194.607C80.9064 195.711 79.4261 196.264 77.9459 194.975C76.4657 193.686 76.8357 191.845 77.7609 190.556C78.871 188.715 80.1663 186.874 81.8315 185.401L82.0532 185.198C86.611 181.026 91.3478 176.689 96.2639 173.065C152.513 130.72 210.242 91.1355 271.857 57.0748C278.888 53.1471 286.084 49.5466 293.28 45.9463C296.877 44.146 300.476 42.3458 304.052 40.5047C304.977 40.1365 305.903 39.7682 306.643 39.4C306.828 39.5841 307.013 39.9523 307.198 40.3206ZM184.893 15.6495C186.188 14.729 187.298 13.6243 188.409 12.5196C188.224 12.3355 188.039 12.1514 187.483 11.9673C186.188 12.8879 184.893 13.8544 183.598 14.821C182.303 15.7876 181.007 16.7542 179.712 17.6748C172.248 23.0302 164.777 28.3857 157.305 33.7432C121.619 59.3274 85.8702 84.956 50.3763 110.836C40.3941 118.024 30.9712 125.768 21.5121 133.543C17.646 136.721 13.7736 139.904 9.85471 143.055C7.07926 145.264 4.67387 147.842 2.26849 150.42C1.34334 151.34 0.418192 152.445 0.0481318 153.734C-0.136898 154.654 0.233162 155.943 0.788252 156.495C1.34334 157.048 2.82358 157.232 3.5637 156.864C5.04393 156.127 6.33914 155.207 7.63435 154.102C12.1072 150.448 16.5318 146.747 20.9517 143.049C28.7821 136.499 36.5978 129.961 44.6403 123.723C64.2696 108.544 83.9603 93.5476 103.642 78.5588L103.643 78.5577C118.097 67.5502 132.547 56.5455 146.962 45.4757C159.728 35.5346 172.309 25.5936 184.889 15.6525L184.893 15.6495ZM185.818 40.5047C183.783 42.3458 181.747 44.1869 179.527 45.8439C173.365 50.6034 167.193 55.3631 161.017 60.125L161.004 60.1355C140.668 75.8165 120.3 91.5229 100.149 107.337C88.2228 116.713 76.4501 126.241 64.7322 135.724C58.2706 140.954 51.8254 146.171 45.3803 151.34C43.9002 152.629 42.4198 153.918 40.7545 154.838C39.8294 155.391 37.794 155.391 37.2389 154.838C36.4988 154.102 36.3138 152.261 36.8689 151.34C37.609 149.867 38.7192 148.394 40.0144 147.106C41.2889 145.943 42.548 144.766 43.8095 143.586C46.9434 140.655 50.0915 137.711 53.5216 134.954C90.5276 105.865 127.904 77.3271 166.945 50.9991C171.192 48.1319 175.687 45.2645 180.023 42.4986C180.977 41.8903 181.923 41.2864 182.858 40.6888C183.598 40.3206 184.338 39.9523 185.078 39.4C185.219 39.611 185.333 39.7682 185.431 39.9024C185.589 40.1197 185.703 40.2771 185.818 40.5047ZM198.641 65.2571C198.985 64.8655 199.336 64.4682 199.695 64.071C199.14 63.7028 198.955 63.5187 198.955 63.5187C196.18 65.5439 193.404 67.5692 190.629 69.4103C159.729 89.8467 129.939 111.756 100.52 134.034C91.8233 140.477 83.312 147.105 74.8008 153.733C73.1355 155.022 71.6549 156.495 70.3597 157.968C69.2495 159.257 68.6944 160.914 69.9896 162.387C71.2848 164.044 72.9501 163.86 74.4303 162.939C76.4657 161.835 78.501 160.546 80.3513 159.073C83.5893 156.495 86.7811 153.872 89.9728 151.248C93.1646 148.625 96.3564 146.001 99.5944 143.423C121.983 125.933 144.557 108.442 167.13 91.1355L194.885 69.0421C196.191 68.0313 197.383 66.6808 198.641 65.2571Z" fill="#E5E5E5"/>
</svg>
