<svg width="598" height="90" viewBox="0 0 598 90" fill="none" xmlns="http://www.w3.org/2000/svg">
<path d="M1 42L73.8758 2L145.057 42L214.543 2L281.205 42L350.691 2L407.184 42L473.845 2L535.988 42L597 2" stroke="#FCA311" stroke-width="3"/>
<path d="M1 65L73.8758 25L145.057 65L214.543 25L281.205 65L350.691 25L407.184 65L473.845 25L535.988 65L597 25" stroke="#FCA311" stroke-width="3"/>
<path d="M1 88L73.8758 48L145.057 88L214.543 48L281.205 88L350.691 48L407.184 88L473.845 48L535.988 88L597 48" stroke="#FCA311" stroke-width="3"/>
</svg>
