<svg width="170" height="122" viewBox="0 0 170 122" fill="none" xmlns="http://www.w3.org/2000/svg">
<g id="Group 431">
<rect id="Rectangle3" width="169.4" height="121.8" rx="60.9" fill="#E5E5E5" fill-opacity="0.3"/>
<path id="Vector" d="M65.1601 56.9493V63.6566C65.0826 67.3763 63.9717 71.0004 61.9525 74.1216C61.1431 75.4529 60.8351 77.0306 61.0841 78.5697C61.3585 80.1133 62.1673 81.5104 63.3679 82.5149C64.5686 83.5194 66.0842 84.0669 67.6479 84.061H102.352C103.916 84.0669 105.431 83.5194 106.632 82.5149C107.833 81.5104 108.641 80.1133 108.916 78.5697C109.165 77.0306 108.857 75.4529 108.047 74.1216C106.028 71.0004 104.917 67.3763 104.84 63.6566V56.9493C104.835 52.6831 103.464 48.5312 100.929 45.105C98.3935 41.6789 94.8283 39.1595 90.758 37.9177C91.4699 36.867 91.8828 35.6415 91.9523 34.3731C92.0217 33.1047 91.7452 31.8412 91.1523 30.7186C90.5594 29.596 89.6726 28.6566 88.5873 28.0014C87.5019 27.3462 86.259 27 84.9922 27C83.7253 27 82.4824 27.3462 81.3971 28.0014C80.3117 28.6566 79.4249 29.596 78.8321 30.7186C78.2392 31.8412 77.9626 33.1047 78.0321 34.3731C78.1016 35.6415 78.5145 36.867 79.2264 37.9177C75.159 39.1622 71.5972 41.6829 69.0651 45.1088C66.533 48.5347 65.1642 52.6851 65.1601 56.9493ZM81.9411 33.9953C81.9397 33.3914 82.1162 32.8005 82.4483 32.2967C82.7805 31.7929 83.2536 31.3986 83.8083 31.1633C84.363 30.928 84.9747 30.8622 85.5665 30.974C86.1584 31.0859 86.7042 31.3705 87.1354 31.7921C87.5667 32.2137 87.8642 32.7536 87.9907 33.3441C88.1172 33.9346 88.067 34.5494 87.8465 35.1114C87.626 35.6734 87.2449 36.1576 86.751 36.5033C86.2572 36.8491 85.6725 37.0409 85.0704 37.0548H84.9139C84.119 37.0324 83.3641 36.7004 82.8091 36.1293C82.2541 35.5581 81.9428 34.7927 81.9411 33.9953ZM84.8983 40.9851H85.1017C89.3065 41.014 93.3295 42.7083 96.294 45.6986C99.2585 48.6889 100.924 52.7328 100.928 56.9493V63.6566C101.002 68.0988 102.311 72.4321 104.707 76.1691C105.036 76.7001 105.159 77.3341 105.051 77.9499C104.926 78.5711 104.588 79.1285 104.094 79.5244C103.601 79.9203 102.984 80.1294 102.352 80.1151H67.6479C67.0161 80.1294 66.3994 79.9203 65.9059 79.5244C65.4124 79.1285 65.0736 78.5711 64.9488 77.9499C64.8413 77.3341 64.9638 76.7001 65.2931 76.1691C67.6892 72.4321 68.9979 68.0988 69.0717 63.6566V56.9493C69.0758 52.7328 70.7415 48.6889 73.706 45.6986C76.6705 42.7083 80.6935 41.014 84.8983 40.9851ZM94.6383 90.0388C94.6383 90.5589 94.4323 91.0578 94.0655 91.4256C93.6987 91.7934 93.2012 92 92.6825 92H77.3175C76.7988 92 76.3013 91.7934 75.9345 91.4256C75.5677 91.0578 75.3617 90.5589 75.3617 90.0388C75.3617 89.5186 75.5677 89.0198 75.9345 88.652C76.3013 88.2842 76.7988 88.0776 77.3175 88.0776H92.6825C93.2012 88.0776 93.6987 88.2842 94.0655 88.652C94.4323 89.0198 94.6383 89.5186 94.6383 90.0388Z" fill="#E5E5E5"/>
</g>
</svg>
