<svg xmlns="http://www.w3.org/2000/svg" fill="none" viewBox="452.94 232.07 240.95 333.95">
<path fill-rule="evenodd" clip-rule="evenodd" d="M671.656 503.74C673.296 502.172 674.933 500.602 676.572 499.035C676.148 502.812 675.717 504.597 671.656 503.74ZM668.943 513.069C667.038 512.627 670.115 507.374 670.53 506.406C672.845 509.447 669.424 510.437 668.943 513.069ZM673.051 495.869C674.942 495.624 676.832 495.381 678.723 495.136C674.953 498.128 676.82 496.05 676.572 499.021C674.792 498.797 673.479 497.605 673.051 495.869ZM651.065 522.461C636.612 540.556 611.711 549.038 589.144 549.287C576.177 549.428 564.941 546.038 553.398 540.453C548.946 538.299 544.235 534.533 539.747 532.934C536.292 531.703 536.381 531.914 532.373 533.567C532.113 530.768 533.69 529.558 531.783 527.176C529.404 524.204 527.3 525.575 524.79 527.202C523.677 524.267 523.321 522.831 521.254 520.485C521.319 520.56 518.794 519.362 518.886 519.439C518.483 519.097 516.461 516.105 515.727 515.404C512.717 512.521 508.808 510.19 506.326 506.841C504.154 503.914 503.798 498.16 498.927 500.376C501.529 494.299 494.425 488.271 491.953 483.444C488.091 475.901 486.482 466.495 486.547 458.092C486.616 449.131 488.674 441.394 490.538 432.928C491.841 427.012 488.408 416.182 494.871 412.42C494.855 415.153 493.381 417.326 494.102 420.119C496.767 417.933 498.918 415.131 500.897 412.336C501.867 410.968 505.64 407.348 505.99 405.944C506.709 403.07 503.445 401.498 506.702 398.994C508.743 404.797 514.964 398.811 513.323 394.658C511.206 395.655 509.898 397.259 508.386 398.97C507.88 389.764 517.242 396.673 517.903 388.841C522.016 389.739 524.611 389.718 527.665 386.583C531.062 383.095 530.271 381.677 535.102 380.481C536.764 380.07 540.897 380.227 542.216 378.944C544.765 376.467 541.952 374.202 545.964 372.576C546.198 374.64 548.476 379.505 551.833 377.245C552.505 376.795 550.997 375.625 552.847 374.719C555.586 373.378 558.525 372.172 561.426 373.944C561.602 366.773 577.454 372.996 582.08 373.269C586.716 373.545 590.53 374.055 594.932 375.545C599.329 377.033 600.075 375.878 604.774 374.861C603.508 378.655 604.735 378.228 607.062 379.991C608.148 379.185 608.842 379.339 609.142 380.454C609.529 381.356 610.203 381.99 611.161 382.36C612.559 383.047 614.262 383.556 615.747 384.229C619.236 385.806 622.99 387.068 626.409 388.622C627.363 388.855 628.327 388.902 629.309 388.765C629.371 389.517 629.435 390.272 629.495 391.025C631.225 392.038 630.385 394.389 633.707 392.848C633.007 396.318 635.629 395.48 637.278 397.21C638.781 398.789 638.534 400.175 639.857 401.784C640.586 403.169 641.733 403.802 643.298 403.688C644.13 405.113 644.991 406.521 645.881 407.909C647.634 410.207 650.017 412.175 652.011 414.251C653.346 415.614 654.658 417.001 655.947 418.407C655.168 420.357 655.741 421.409 657.666 421.562C658.64 423.484 659.089 423.618 659.635 426.413C660.871 432.749 662.199 437.829 664.537 444.02C674.695 470.934 668.776 500.289 651.065 522.461ZM691.43 443.841C687.906 429.213 681.633 411.503 674.109 399.993C670.295 394.157 665.538 384.578 659.818 379.905C658.463 378.797 656.874 378.081 655.554 376.962C654.534 376.098 654.412 374.619 653.165 373.827C652.294 373.274 651.291 375.326 650.379 374.707C648.472 373.41 648.038 370.779 647.122 368.858C641.635 372.943 643.843 363.063 636.572 367.225C634.765 356.212 620.997 352.548 612.002 349.208C609.335 348.217 607.71 348.621 605.099 348.316C602.669 348.033 602.527 347.777 600.181 346.75C594.339 344.192 588.82 342.698 582.298 342.95C571.343 343.371 560.1 346.526 549.22 348.03C537.061 349.711 525.174 353.389 514.131 358.737C474.205 378.077 447.788 419.965 453.789 464.802C463.324 536.015 548.027 579.503 613.991 562.237C664.955 548.895 704.307 497.268 691.43 443.841Z" fill="#E5E5E5" fill-opacity="0.5"/>
<path fill-rule="evenodd" clip-rule="evenodd" d="M522.351 256.703C514.31 257.054 506.269 257.405 498.23 257.757C498.048 252.098 499.847 237.622 494.964 233.582C487.059 227.04 486.8 243.55 486.985 247.429C487.137 250.616 488.361 255.977 486.291 258.81C483.507 262.629 476.89 261.568 472.827 262.412C462.771 264.502 457.963 275.885 471.233 275.877C478.742 275.871 489.832 271.684 491.015 282.344C491.563 287.263 487.402 311.652 499.154 299.574C506.428 292.095 493.876 275.704 505.276 271.627C508.946 270.316 512.107 271.427 515.329 271.151C523.113 270.482 522.223 262.699 522.351 256.703Z" fill="#E5E5E5" fill-opacity="0.5"/>
</svg>