<svg width="86" height="93" viewBox="0 0 86 93" fill="none" xmlns="http://www.w3.org/2000/svg">
<g clip-path="url(#clip0_177_198)">
<path fill-rule="evenodd" clip-rule="evenodd" d="M20.4456 58.3764C20.3425 58.3572 20.2383 58.338 20.1327 58.3183C20.0976 58.4552 20.0274 58.7293 19.9063 58.9172C20.2567 59.1165 20.5641 59.3412 20.8715 59.5659C21.1789 59.7907 21.4863 60.0154 21.8367 60.2146C22.3327 60.4633 22.8246 60.7272 23.3167 60.9912C24.3007 61.519 25.2847 62.0468 26.3 62.4529C37.0267 67.0254 48.1359 70.6742 59.2453 74.3229C59.8442 74.5493 60.4432 74.7757 61.0613 74.6421C61.7305 74.5945 62.6419 74.171 62.8332 73.7091C63.1106 73.1962 63.0822 72.167 62.7255 71.5647C62.3179 70.8764 61.4292 70.3567 60.6423 70.0091C58.5205 69.1736 56.3637 68.4751 54.2577 67.8627C50.6129 66.7545 46.9739 65.726 43.3446 64.7002C40.905 64.0107 38.4698 63.3226 36.0404 62.6122C31.8285 61.3873 27.4797 60.1272 23.1818 58.9533C22.1965 58.7009 21.3631 58.5465 20.4456 58.3764ZM15.1357 41.6366C15.7208 41.7864 16.2431 41.9735 16.8415 42.1879L16.8428 42.1883C16.9446 42.2247 17.0487 42.262 17.1556 42.3C24.558 44.8896 31.9478 47.4578 39.3374 50.026C46.7271 52.5941 54.1168 55.1622 61.5194 57.7519C61.9011 57.8875 62.2887 58.0198 62.6784 58.1528C63.7912 58.5324 64.9218 58.9182 65.9859 59.407C66.6358 59.7195 67.2857 60.032 67.8144 60.5324C68.7191 61.2751 69.0566 62.2375 68.5527 63.3493C68.084 64.3241 67.2587 64.6966 66.1277 64.5529C65.4935 64.4635 64.8595 64.374 64.2606 64.1476C63.6786 63.9499 63.0928 63.7674 62.5069 63.5849C61.3352 63.2199 60.1635 62.8548 59.023 62.368C57.0916 61.5758 55.1618 60.7862 53.2337 59.9973C44.2817 56.3347 35.3665 52.687 26.4988 48.854C24.1812 47.7844 21.9457 46.5441 19.7194 45.3089C18.8732 44.8395 18.0281 44.3706 17.1806 43.9123C16.3427 43.4787 15.575 42.771 14.8074 42.0635C14.8934 42.0125 15.0146 41.8245 15.1357 41.6366ZM10.441 26.0542C10.6035 26.1323 10.7875 26.1977 10.9715 26.263C11.1555 26.3284 11.3395 26.3938 11.5019 26.4719C28.4696 33.7654 45.8401 39.9251 63.1781 46.0732C65.5934 46.9297 68.0085 47.7862 70.4215 48.6452C70.8664 48.8078 71.3208 48.9648 71.7753 49.1217C72.6844 49.4357 73.5936 49.7497 74.4261 50.109C74.5402 50.1639 74.657 50.2172 74.7744 50.2708C75.3254 50.5222 75.8897 50.7798 76.2547 51.2343C76.6114 51.8367 76.9488 52.799 76.7224 53.3979C76.4959 53.997 75.6355 54.5065 74.9822 54.7771C74.5122 54.9591 73.9614 54.8698 73.4256 54.783C73.3148 54.7651 73.2046 54.7472 73.096 54.7318C71.863 54.4159 70.63 54.1001 69.4321 53.6473C53.5505 47.8272 37.8092 41.4592 22.6929 33.7913C20.1251 32.4944 17.6281 31.0503 15.1016 29.5893C13.8762 28.8806 12.6439 28.1678 11.3933 27.466C11.0513 27.2811 10.7859 27.0509 10.5204 26.8207C10.3877 26.7056 10.255 26.5905 10.1127 26.481C10.2387 26.4064 10.2912 26.313 10.3579 26.1946C10.3823 26.1512 10.4086 26.1045 10.441 26.0542Z" fill="#FCA311"/>
</g>
<defs>
<clipPath id="clip0_177_198">
<rect width="60" height="74" fill="white" transform="translate(0.385742 24.6167) rotate(-24.2223)"/>
</clipPath>
</defs>
</svg>
