<svg width="210" height="274" viewBox="0 0 210 274" fill="none" xmlns="http://www.w3.org/2000/svg">
<g clip-path="url(#clip0_177_200)">
<path d="M135.723 62.3787C136.308 61.2128 136.747 59.9011 137.477 58.7351C138.793 56.2574 140.547 54.3628 143.47 53.634C148.585 52.3223 153.554 56.1117 153.554 61.7957C153.554 66.4596 153.116 71.1234 152.531 75.7872C147.27 112.806 129.877 142.976 101.377 166.878C93.6312 173.436 86.7619 180.432 80.6235 188.448C71.7081 200.108 62.501 211.476 51.9779 221.824C45.9856 227.799 39.5548 233.046 32.3933 237.564C28.0087 240.333 23.3318 242.374 18.0702 243.102C9.30098 244.268 2.43175 239.605 1.11636 230.86C-0.19902 221.678 1.70097 213.225 7.40099 205.792C11.7856 200.108 17.0471 195.59 23.3317 192.383C27.7164 190.197 32.101 188.011 36.6318 185.971C68.2004 171.396 91.0004 148.077 105.031 116.45C110.731 103.624 114.093 90.0702 116.431 76.2245C118.331 64.5649 120.085 52.9053 121.985 41.3915C122.423 38.7681 123.154 36.1447 123.885 33.5213C127.539 20.55 136.6 12.8255 148.731 8.59892C154.285 6.55849 160.277 5.82977 166.123 4.95529C168.316 4.51807 170.8 4.80957 173.139 5.10106C176.647 5.68404 178.693 8.01593 178.839 10.7851C178.839 13.5542 176.939 15.7404 173.431 16.7606C167.877 18.3638 162.177 19.967 156.623 21.5702C152.093 22.8819 148.439 25.3596 145.223 28.7117C142.008 31.9181 139.816 35.7074 138.939 40.2255C137.77 46.784 136.6 53.3426 135.577 59.9011C135.431 60.6298 135.577 61.3585 135.577 62.0872C135.431 62.233 135.577 62.233 135.723 62.3787ZM52.4164 197.047C51.8317 197.047 51.6856 196.901 51.3933 196.901C44.2318 200.399 37.0702 203.751 29.9087 207.249C25.8164 209.29 22.4548 212.496 19.6779 216.14C17.4856 219.2 16.6087 222.698 16.901 226.633C25.6702 224.593 44.2318 208.852 52.4164 197.047Z" fill="#FCA311"/>
<path d="M209.386 51.5091C208.07 66.0835 207.486 80.2208 204.855 94.2123C202.663 105.289 201.201 116.511 199.301 127.588C198.424 132.835 197.109 138.082 195.793 143.329C195.209 145.515 194.186 147.701 193.601 150.033C188.632 167.814 180.447 184.137 169.924 199.295C167.44 202.938 164.955 206.582 162.178 210.08C143.763 232.525 121.255 249.577 95.0934 261.965C86.4704 265.9 77.8473 269.835 68.6396 271.73C58.2627 273.916 47.8857 274.936 37.3627 272.896C29.1781 271.293 21.7242 267.94 15.2934 262.839C10.0319 258.613 5.93959 253.366 3.30882 247.099C-3.99887 229.61 5.93961 210.08 20.2627 204.396C30.2011 200.461 40.1396 196.38 50.2242 192.299C73.0242 182.971 92.0242 168.542 107.078 149.304C115.409 138.665 120.817 126.568 125.64 114.179C131.778 98.8761 134.555 83.1357 133.824 66.6665C133.386 57.9219 133.24 49.1772 132.947 40.4325C132.655 33.1453 134.263 26.2953 137.332 19.7368C140.109 13.7612 144.493 9.38889 150.34 6.61972C161.447 1.37292 172.993 -0.230286 185.124 2.6846C192.87 4.57928 198.57 8.95166 202.224 16.0931C205.293 21.9229 207.486 28.0442 208.07 34.6027C208.509 40.5782 208.947 46.2623 209.386 51.5091Z" fill="#14213D"/>
<mask id="mask0_177_200" style="mask-type:alpha" maskUnits="userSpaceOnUse" x="0" y="1" width="210" height="273">
<path d="M209.386 51.5091C208.07 66.0835 207.486 80.2208 204.855 94.2123C202.663 105.289 201.201 116.511 199.301 127.588C198.424 132.835 197.109 138.082 195.793 143.329C195.209 145.515 194.186 147.701 193.601 150.033C188.632 167.814 180.447 184.137 169.924 199.295C167.44 202.938 164.955 206.582 162.178 210.08C143.763 232.525 121.255 249.577 95.0934 261.965C86.4704 265.9 77.8473 269.835 68.6396 271.73C58.2627 273.916 47.8857 274.936 37.3627 272.896C29.1781 271.293 21.7242 267.94 15.2934 262.839C10.0319 258.613 5.93959 253.366 3.30882 247.099C-3.99887 229.61 5.93961 210.08 20.2627 204.396C30.2011 200.461 40.1396 196.38 50.2242 192.299C73.0242 182.971 92.0242 168.542 107.078 149.304C115.409 138.665 120.817 126.568 125.64 114.179C131.778 98.8761 134.555 83.1357 133.824 66.6665C133.386 57.9219 133.24 49.1772 132.947 40.4325C132.655 33.1453 134.263 26.2953 137.332 19.7368C140.109 13.7612 144.493 9.38889 150.34 6.61972C161.447 1.37292 172.993 -0.230286 185.124 2.6846C192.87 4.57928 198.57 8.95166 202.224 16.0931C205.293 21.9229 207.486 28.0442 208.07 34.6027C208.509 40.5782 208.947 46.2623 209.386 51.5091Z" fill="black"/>
</mask>
<g mask="url(#mask0_177_200)">
<path d="M214.355 42.7032C213.478 41.1 213.185 39.7883 212.309 38.7681C209.97 36.2904 207.778 33.8128 205.147 31.6266C186.147 15.8862 164.516 6.12129 140.255 2.33192C131.924 1.02022 123.593 0.291519 115.116 1.6032C113.655 1.8947 112.193 2.18617 110.732 2.62343C108.247 3.35213 107.955 3.64363 106.639 5.97554C105.032 4.37236 104.885 3.35213 106.493 2.18617C108.101 1.02022 109.855 0.145767 111.755 -0.291489C116.432 -1.6032 121.109 -1.8947 125.932 -1.6032C155.893 0.291489 182.639 10.4936 205.732 29.5862C208.362 31.7724 210.847 34.3958 213.185 36.8734C214.062 37.8936 214.939 39.0596 215.524 40.3713C216.547 42.9947 215.524 44.8894 212.601 44.8894C209.97 44.8894 207.193 44.5979 204.709 44.0149C192.87 41.1 181.178 38.0394 169.485 34.9787C162.616 33.2298 155.601 31.7723 148.439 31.3351C145.809 31.1894 143.032 31.4809 140.401 31.7724C139.378 31.9181 138.355 32.5011 136.601 33.2298C138.209 34.833 139.085 36.1447 140.401 37.0191C143.762 39.3511 147.124 41.683 150.485 43.8692C157.939 48.8245 165.685 53.4883 172.993 58.5894C190.824 71.1234 203.832 87.5926 212.309 107.705C213.77 111.057 214.793 114.701 215.816 118.345C216.401 120.239 216.401 122.28 216.401 124.174C216.401 128.547 214.209 130.15 209.97 128.838C207.632 128.11 205.439 127.089 203.247 125.778C195.939 121.405 188.778 116.887 181.47 112.369C167.585 103.624 153.701 95.1713 138.647 88.6128C133.239 86.2809 127.832 84.0947 121.985 83.2202C120.962 83.0745 120.086 83.0745 118.186 83.0745C119.647 85.1149 120.524 86.4266 121.547 87.5925C124.762 91.0904 128.124 94.5883 131.339 98.0862C146.685 113.972 159.693 131.024 169.047 150.846C174.309 161.922 178.401 173.436 180.301 185.533C181.032 190.342 181.762 195.298 180.885 200.107C180.885 200.399 180.739 200.836 180.739 201.128C179.57 207.54 175.478 209.872 169.485 206.957C166.709 205.646 164.078 204.042 161.885 202.148C155.601 196.755 149.316 191.363 143.178 185.824C131.632 175.476 120.232 164.837 108.539 154.781C104.009 150.846 98.747 147.639 93.6317 144.287C91.7317 142.975 89.3932 142.392 87.347 141.518C87.0547 141.664 86.9086 141.809 86.6163 142.101C86.9086 143.267 87.0547 144.433 87.6393 145.453C89.247 148.659 91.0009 151.866 92.6086 155.072C101.67 172.27 109.416 189.905 114.97 208.561C119.062 222.115 121.109 235.815 120.232 249.952C120.086 253.304 119.355 256.656 118.77 260.008C118.478 261.466 117.893 262.923 117.016 264.235C114.97 267.879 111.901 268.607 108.539 266.275C106.493 264.964 104.593 263.215 103.132 261.32C99.1855 256.51 95.2393 251.409 91.5855 246.308C81.5009 232.463 71.8547 218.325 60.3089 205.5C54.6089 199.233 48.6166 193.403 42.6243 187.573C41.0166 186.116 39.1166 184.95 37.3627 183.638C37.0704 183.784 36.9243 183.93 36.632 184.075C37.2166 185.97 37.9473 188.01 38.532 189.905C42.1858 200.545 46.2781 211.184 49.6396 221.969C53.1473 233.337 55.7781 244.997 56.8012 256.802C57.0935 261.029 57.0935 265.109 56.9473 269.336C56.9473 270.648 56.655 271.814 56.2166 273.125C55.0473 277.06 52.2704 277.935 49.055 275.457C47.7396 274.437 46.5704 273.271 45.5473 271.959C42.9166 268.753 40.4319 265.692 37.9473 262.34C19.8242 237.564 1.26271 213.079 -18.468 189.614C-23.7296 183.347 -29.2834 177.371 -34.9834 170.958C-34.1065 171.541 -33.3758 171.687 -32.9373 172.27C-26.5065 179.12 -19.7834 185.824 -13.7911 193.112C4.7704 215.119 22.455 238.001 39.4089 261.32C42.1858 265.109 45.255 268.607 48.1781 272.105C49.2012 273.271 50.6627 274 51.8319 275.02C53.8781 273.271 53.8781 271.231 54.0242 269.19C54.6089 260.446 53.2935 251.992 51.5396 243.539C48.032 226.487 42.7704 210.018 36.1935 193.84C35.1704 191.363 34.2935 188.885 33.5627 186.262C33.2704 185.241 33.1243 183.93 33.1243 182.764C33.2704 180.869 34.7319 179.849 36.632 180.432C38.3858 181.015 40.1396 182.035 41.455 183.201C46.1319 187.282 50.8089 191.363 55.0473 195.735C67.7624 208.706 78.4317 223.281 88.8086 238.147C93.3393 244.559 97.8701 250.826 102.547 257.093C104.301 259.425 106.347 261.466 108.539 263.36C111.316 265.692 113.362 265.109 114.824 261.757C116.724 257.239 117.016 252.43 117.162 247.62C117.455 236.689 115.993 226.05 113.216 215.41C107.809 194.715 99.1855 175.476 89.3932 156.53C87.7855 153.323 86.0317 150.117 84.424 146.91C83.8394 145.599 83.4009 143.996 83.2547 142.538C82.9624 139.769 84.5701 138.312 87.347 138.749C89.1009 139.04 91.0009 139.623 92.6086 140.643C96.9932 143.267 101.378 146.036 105.47 149.097C118.039 158.133 129.001 168.626 139.962 178.974C146.539 185.241 153.262 191.363 159.985 197.484C162.178 199.524 164.809 201.273 167.293 202.876C168.755 203.897 170.362 204.625 171.97 205.208C175.039 206.374 176.939 205.354 177.816 202.293C178.401 200.253 178.693 198.213 178.693 196.026C178.839 187.282 176.647 178.974 174.016 170.667C167.439 149.971 156.478 131.607 142.593 114.993C136.747 107.997 130.462 101.438 124.324 94.5883C122.278 92.4021 120.232 90.0702 118.332 87.7383C117.455 86.7181 116.87 85.6979 116.432 84.3862C115.701 82.0542 116.724 80.3053 119.209 80.3053C121.255 80.1596 123.447 80.4511 125.493 80.8883C133.093 82.6372 140.255 85.8436 147.416 89.3415C160.278 95.6085 172.262 103.187 184.247 110.912C190.532 114.993 196.816 118.928 203.247 122.863C205.585 124.32 208.216 125.486 210.847 126.506C213.77 127.527 214.939 126.652 214.793 123.737C214.647 121.26 214.355 118.636 213.478 116.159C209.678 103.479 202.809 92.4021 194.77 82.0543C187.17 72.2894 177.962 64.2734 167.585 57.4234C160.716 52.9053 153.847 48.6787 146.978 44.1606C144.639 42.7032 142.301 41.1 139.962 39.4968C138.939 38.7681 138.062 38.0394 137.332 37.3107C135.87 35.9989 134.847 34.3958 135.432 32.3553C136.016 30.4606 137.77 29.7319 139.524 29.5862C142.885 29.2947 146.247 28.7117 149.609 29.1489C155.455 29.8777 161.447 30.7521 167.147 32.2096C178.547 34.9787 189.655 38.1851 201.055 41.1C203.539 41.683 206.024 42.266 208.655 42.7032C209.97 42.9947 211.87 42.7032 214.355 42.7032Z" fill="#FBE8DE"/>
</g>
</g>
<defs>
<clipPath id="clip0_177_200">
<rect width="209" height="274" fill="white" transform="matrix(-1 0 0 -1 209.386 274)"/>
</clipPath>
</defs>
</svg>
