<svg width="255" height="96" viewBox="0 0 255 96" fill="none" xmlns="http://www.w3.org/2000/svg">
<mask id="mask0_346_226" style="mask-type:luminance" maskUnits="userSpaceOnUse" x="5" y="41" width="243" height="13">
<path d="M13.0258 41.869V46.2739H8.08075V41.869H5.55322V53.1959H8.08075V48.3304H13.0258V53.1959H15.5429V41.869H13.0258ZM38.5112 44.4635L40.2417 48.791H36.7912L38.5112 44.4635ZM37.2809 41.869L32.4354 53.1959H35.0115L35.9751 50.8462H41.0387L42.0017 53.1959H44.6448L39.7685 41.869H37.2809ZM63.5622 42.5958C62.6837 43.0622 61.9518 43.7632 61.4482 44.6208C60.9451 45.5102 60.6807 46.5147 60.6807 47.5365C60.6807 48.5584 60.9451 49.5629 61.4482 50.4523C61.9502 51.3083 62.6828 52.006 63.5622 52.4659C64.4864 52.9607 65.5215 53.2107 66.5696 53.1921C67.4476 53.2047 68.3196 53.0445 69.1359 52.7208C69.8777 52.4245 70.5387 51.9561 71.0636 51.354L69.4505 49.811C69.1262 50.2283 68.7101 50.5651 68.2344 50.7953C67.7586 51.0255 67.2364 51.1428 66.7079 51.1382C66.0786 51.1494 65.4575 50.993 64.9086 50.6851C64.3811 50.3828 63.9513 49.9358 63.6697 49.397C63.3788 48.8174 63.2273 48.1778 63.2273 47.5293C63.2273 46.8808 63.3788 46.2412 63.6697 45.6616C63.9518 45.1254 64.3817 44.6814 64.9086 44.3823C65.4568 44.0719 66.0779 43.9125 66.7079 43.9204C67.244 43.9201 67.7721 44.0475 68.2491 44.2921C68.7261 44.5367 69.1379 44.8914 69.4505 45.3269L71.0636 43.714C70.5375 43.1174 69.8814 42.6498 69.1457 42.3473C68.3336 42.0205 67.4647 41.8571 66.5893 41.8665C65.535 41.8513 64.4941 42.1012 63.5616 42.5933M95.8245 41.8665L91.0055 47.1857V41.8665H88.4994V53.1934H91.0055V50.3428L92.4717 48.8187L95.9523 53.1934H98.891L94.1137 46.9409L98.6255 41.8678L95.8245 41.8665ZM116.276 42.3863C115.573 42.6975 114.969 43.1942 114.527 43.8229L116.352 45.111C116.589 44.7336 116.922 44.425 117.316 44.2162C117.718 44.0152 118.163 43.9138 118.613 43.9204C119.075 43.8913 119.533 44.0198 119.912 44.2848C120.061 44.4148 120.178 44.5772 120.254 44.7595C120.331 44.9417 120.364 45.139 120.353 45.3363C120.349 45.6686 120.268 45.9955 120.116 46.2909C119.874 46.7145 119.569 47.0988 119.211 47.4305L115.013 51.5799V53.1921H123.243V51.1407H118.563L121.068 48.7123C121.652 48.1931 122.141 47.5775 122.516 46.8925C122.764 46.3566 122.891 45.7727 122.889 45.1821C122.901 44.5604 122.722 43.9499 122.378 43.4321C122.023 42.9232 121.533 42.5244 120.962 42.2812C120.292 41.9941 119.568 41.8535 118.839 41.869C117.956 41.8538 117.079 42.0312 116.271 42.3888M142.134 42.3202C141.51 42.5744 140.971 43.0008 140.579 43.5498C140.239 44.0587 140.061 44.6587 140.069 45.2709C140.035 45.9048 140.238 46.5287 140.639 47.0209C140.999 47.4524 141.467 47.7815 141.995 47.9748C142.664 48.2115 143.347 48.4082 144.04 48.5638C144.572 48.6897 145.004 48.8099 145.319 48.9087C145.6 48.9976 145.863 49.1373 146.095 49.3208C146.19 49.4005 146.266 49.5 146.319 49.6122C146.372 49.7245 146.4 49.8469 146.4 49.9709C146.398 50.1458 146.349 50.3171 146.26 50.4673C146.17 50.6176 146.042 50.7415 145.89 50.8267C145.399 51.0709 144.851 51.1796 144.305 51.1413C143.647 51.1409 142.994 51.0377 142.369 50.8355C141.771 50.6618 141.209 50.3849 140.707 50.0174L139.852 51.926C140.436 52.3458 141.092 52.6555 141.788 52.8397C142.6 53.0768 143.441 53.1959 144.287 53.1934C145.154 53.2183 146.018 53.0647 146.823 52.7422C147.449 52.4922 147.992 52.0692 148.386 51.5226C148.729 51.0185 148.911 50.422 148.907 49.8123C148.936 49.1817 148.733 48.5622 148.337 48.0711C147.964 47.6535 147.495 47.3331 146.971 47.1379C146.308 46.901 145.631 46.7039 144.945 46.5476C144.331 46.431 143.73 46.2496 143.154 46.0065C142.982 45.9452 142.834 45.8316 142.73 45.6818C142.626 45.5319 142.571 45.3533 142.574 45.1708C142.573 44.9895 142.619 44.8112 142.708 44.6528C142.796 44.4944 142.923 44.3612 143.077 44.2659C143.558 44.0035 144.104 43.8841 144.65 43.9217C145.719 43.9447 146.761 44.2645 147.658 44.8455L148.435 42.8494C147.896 42.519 147.309 42.2738 146.695 42.1226C146.029 41.9555 145.346 41.871 144.661 41.8709C143.796 41.8491 142.936 42.0026 142.133 42.3221M173.695 41.8709L168.878 47.1901V41.8709H166.379V53.1978H168.887V50.3472L170.349 48.8231L173.83 53.1978H176.77L171.992 46.9453L176.506 41.8722L173.695 41.8709ZM193.62 53.1978H196.147V41.8709H193.626L193.62 53.1978ZM214.462 41.8709V53.1978H222.445V51.1407H216.989V41.869L214.462 41.8709ZM239.596 41.8709V53.1978H247.58V51.1407H242.123V41.869L239.596 41.8709Z" fill="white"/>
</mask>
<g mask="url(#mask0_346_226)">
<mask id="mask1_346_226" style="mask-type:luminance" maskUnits="userSpaceOnUse" x="4" y="-20" width="283" height="118">
<path d="M286.216 -19.6528H4.16748V97.9476H286.216V-19.6528Z" fill="white"/>
</mask>
<g mask="url(#mask1_346_226)">
<rect x="286.216" y="-19.6528" width="117.6" height="282.048" transform="rotate(90 286.216 -19.6528)" fill="white"/>
</g>
</g>
<mask id="mask2_346_226" style="mask-type:luminance" maskUnits="userSpaceOnUse" x="0" y="0" width="251" height="37">
<path d="M0.152832 36.7084H21.5879V1.57946H0.153447L0.152832 36.7084ZM63.6408 36.7084H85.0661V1.57946H63.6408V36.7084ZM111.116 4.5622C105.084 7.3407 99.9192 11.7036 96.1711 17.186L111.786 27.2449C113.866 24.2588 116.689 21.8664 119.975 20.3034C123.417 18.7191 127.17 17.9261 130.958 17.9826C135.805 17.9826 139.486 18.9754 141.999 20.961C144.512 22.9465 145.771 25.7883 145.775 29.4863C145.743 31.9931 145.151 34.461 144.04 36.7084H166.007C166.892 33.6758 167.336 30.5313 167.325 27.372C167.325 21.8268 165.892 17.0024 163.028 12.8988C159.986 8.66106 155.817 5.36075 150.994 3.37225C145.831 1.13037 139.814 0.0062927 132.942 0C124.742 0 117.466 1.52073 111.114 4.5622M197.149 3.83414C191.289 6.39023 186.904 9.85122 183.993 14.2171C181.098 18.5357 179.576 23.629 179.627 28.8281C179.595 31.4928 179.953 34.148 180.689 36.7091H210.726C209.074 36.1911 207.457 35.5722 205.881 34.8559C202.577 33.3112 200.925 30.9513 200.925 27.776C200.924 24.6007 202.356 22.0416 205.22 20.0989C208.082 18.162 212.513 17.1921 218.514 17.1891C227.058 17.1891 235.609 19.6146 244.167 24.4654L250.784 8.20253C246.194 5.41194 241.194 3.35804 235.968 2.1156C230.301 0.706456 224.482 -0.00297899 218.642 0.00314942C210.177 0.00314942 203.013 1.2812 197.15 3.83729" fill="white"/>
</mask>
<g mask="url(#mask2_346_226)">
<mask id="mask3_346_226" style="mask-type:luminance" maskUnits="userSpaceOnUse" x="-4" y="-18" width="295" height="166">
<path d="M290.363 -17.7007H-3.88428V147.924H290.363V-17.7007Z" fill="white"/>
</mask>
<g mask="url(#mask3_346_226)">
<rect x="290.363" y="-17.7006" width="165.624" height="294.247" transform="rotate(90 290.363 -17.7006)" fill="white"/>
</g>
</g>
<mask id="mask4_346_226" style="mask-type:luminance" maskUnits="userSpaceOnUse" x="0" y="58" width="255" height="38">
<path d="M0 94.271H21.4351V58.0477H0V94.271ZM63.4892 94.271H84.9133V58.0477H63.4892V94.271ZM123.915 58.0446L100.255 80.388V94.271H170.222V76.8125H130.41L150.287 58.0477L123.915 58.0446ZM218.138 58.0446C220.477 58.6487 222.466 59.2204 224.105 59.7599C226.515 60.4908 228.762 61.6794 230.723 63.2606C231.544 63.9173 232.204 64.7531 232.652 65.7041C233.1 66.6551 233.325 67.696 233.309 68.7472C233.309 71.7454 231.853 74.1476 228.942 75.9536C226.031 77.7596 221.535 78.6645 215.453 78.6682C209.881 78.6549 204.346 77.7629 199.052 76.0253C193.987 74.4626 189.206 72.0953 184.893 69.014L177.627 85.1491C181.767 88.3244 187.254 90.9044 194.087 92.8891C200.988 94.8756 208.134 95.875 215.315 95.8574C223.78 95.8574 230.968 94.5793 236.878 92.0232C242.777 89.4667 247.204 86.0087 250.159 81.6491C253.082 77.3877 254.629 72.3336 254.594 67.1664C254.65 64.0614 254.143 60.9718 253.097 58.0477L218.138 58.0446Z" fill="white"/>
</mask>
<g mask="url(#mask4_346_226)">
<mask id="mask5_346_226" style="mask-type:luminance" maskUnits="userSpaceOnUse" x="-5" y="-18" width="296" height="167">
<path d="M290.209 -17.5886H-4.03857V148.036H290.209V-17.5886Z" fill="white"/>
</mask>
<g mask="url(#mask5_346_226)">
<rect x="290.208" y="-17.5886" width="165.624" height="294.247" transform="rotate(90 290.208 -17.5886)" fill="white"/>
</g>
</g>
</svg>
