<svg width="380" height="75" viewBox="0 0 380 75" fill="none" xmlns="http://www.w3.org/2000/svg">
<g clip-path="url(#clip0_346_212)">
<path d="M358.72 0.928711H341.874L363.154 37.8969L341.874 74.9287H358.72L380 37.8969L358.72 0.928711Z" fill="white"/>
<path d="M21.28 0.928711H38.1267L16.8467 37.8969L38.1267 74.9287H21.28L0 37.8969L21.28 0.928711Z" fill="white"/>
<path d="M53.3266 60.3828H39.8999V15.4746H53.8966C66.6899 15.4746 76.1899 21.5089 76.1899 37.9605C76.1899 53.7132 64.7899 60.3828 53.3266 60.3828ZM53.6432 24.1768H48.8932V51.6171H53.3266C62.6999 51.6171 67.0066 46.0909 67.0066 37.8969C67.0066 28.7501 63.0799 24.1768 53.6432 24.1768Z" fill="white"/>
<path d="M86.4497 60.3828V15.4746H117.546V24.2403H95.3797V31.9896H108.236V40.6918H95.3797V51.5536H118.496V60.3193H86.4497V60.3828Z" fill="white"/>
<path d="M150.1 60.3828H141.423L125.526 15.4746H135.47L143.893 41.454C144.716 43.9313 145.603 47.2343 145.983 48.8223C146.363 47.1708 147.186 44.0583 148.01 41.454L156.243 15.4746H166.06L150.1 60.3828Z" fill="white"/>
<path d="M194.37 44.4394H184.49V60.3828H175.56V15.4746H195.13C203.553 15.4746 210.52 20.175 210.52 29.7029C210.583 40.1201 203.68 44.4394 194.37 44.4394ZM194.877 24.1768H184.553V35.7373H195.003C199.183 35.7373 201.4 33.8317 201.4 29.8935C201.4 25.9553 198.803 24.1768 194.877 24.1768Z" fill="white"/>
<path d="M237.436 61.0815C225.213 61.0815 217.993 51.5536 217.993 37.897C217.993 24.2403 225.213 14.7124 237.436 14.7124C249.66 14.7124 256.88 24.2403 256.88 37.897C256.88 51.5536 249.66 61.0815 237.436 61.0815ZM237.436 23.6686C230.216 23.6686 227.176 29.8935 227.176 37.897C227.176 45.9004 230.153 52.1253 237.436 52.1253C244.656 52.1253 247.696 45.9004 247.696 37.897C247.696 29.8935 244.656 23.6686 237.436 23.6686Z" fill="white"/>
<path d="M281.58 61.0815C274.106 61.0815 267.583 57.969 264.163 52.951L270.623 47.1707C273.79 50.8549 277.78 52.3158 282.086 52.3158C287.406 52.3158 289.876 50.8549 289.876 47.4248C289.876 44.5664 288.356 43.2325 279.87 41.327C271.636 39.4214 265.873 36.7536 265.873 27.9244C265.873 19.7939 273.03 14.7759 281.896 14.7759C288.863 14.7759 293.993 17.3802 298.236 21.8265L291.776 28.1149C288.926 25.193 285.696 23.478 281.58 23.478C276.766 23.478 275.183 25.5106 275.183 27.5433C275.183 30.3381 277.083 31.2909 284.176 32.9424C291.27 34.5939 299.123 37.0712 299.123 46.7896C299.186 55.3012 293.803 61.0815 281.58 61.0815Z" fill="white"/>
<path d="M327.18 24.3038V60.3828H318.25V24.3038H305.393V15.4746H340.1V24.3038H327.18Z" fill="white"/>
</g>
<defs>
<clipPath id="clip0_346_212">
<rect width="380" height="74" fill="white" transform="translate(0 0.928711)"/>
</clipPath>
</defs>
</svg>
