<svg width="395" height="84" viewBox="0 0 395 84" fill="none" xmlns="http://www.w3.org/2000/svg">
<g clip-path="url(#clip0_346_187)">
<path d="M99.5317 15.8706H121.097C126.324 15.728 131.511 16.8139 136.25 19.0426C140.351 21.0352 143.748 24.246 145.986 28.2434C148.33 32.6256 149.496 37.5499 149.368 42.5271C149.502 47.5298 148.348 52.4821 146.018 56.9009C143.799 60.9015 140.41 64.1145 136.314 66.1017C131.555 68.3319 126.349 69.4178 121.103 69.2737H99.5317V15.8706ZM119.738 57.6923C121.819 57.8549 123.911 57.5972 125.891 56.9343C127.872 56.2714 129.702 55.2167 131.273 53.8318C132.652 52.2506 133.702 50.4059 134.359 48.4075C135.017 46.4091 135.269 44.2977 135.102 42.199C135.278 40.0996 135.029 37.986 134.371 35.9863C133.713 33.9867 132.659 32.1427 131.273 30.5661C129.691 29.2035 127.858 28.17 125.878 27.5251C123.898 26.8802 121.811 26.6367 119.738 26.8086H112.93V57.6923H119.738Z" fill="white"/>
<path d="M190.131 53.1884H167.162C167.407 55.2118 168.395 57.0691 169.931 58.3936C171.636 59.5572 173.677 60.1122 175.731 59.97C179.449 59.9208 183.065 58.7388 186.105 56.5792L189.493 65.3489C187.469 66.798 185.214 67.8861 182.825 68.566C180.307 69.3339 177.692 69.7284 175.061 69.737C171.268 69.8345 167.505 69.0346 164.074 67.4014C161.081 65.9326 158.596 63.5898 156.941 60.6777C155.202 57.5443 154.325 53.9989 154.402 50.4089C154.34 46.9301 155.147 43.4916 156.75 40.4103C158.253 37.5378 160.537 35.1565 163.334 33.5451C166.25 31.8804 169.554 31.0339 172.904 31.0937C175.226 31.0025 177.539 31.4148 179.689 32.3028C181.838 33.1908 183.774 34.5338 185.365 36.241C188.554 40.0826 190.248 44.9629 190.131 49.9714V53.1884ZM167.162 46.7543H178.774C178.485 42.332 176.552 40.1208 172.974 40.1208C169.397 40.1208 167.46 42.332 167.162 46.7543Z" fill="white"/>
<path d="M220.488 31.9558H233.599L217.068 69.2736H206.005L189.735 31.9558H203.772L211.919 52.9889L220.488 31.9558Z" fill="white"/>
<path d="M257.123 32.5993H265.418V42.2505H256.485V69.2737H243.087V42.2505H236.707V32.5993H243.54C243.515 30.4255 243.959 28.2723 244.84 26.2884C245.722 24.3044 247.019 22.5369 248.644 21.108C252.812 18.1791 257.786 16.6421 262.865 16.7135L267.472 16.424L268.238 25.9915L264.69 26.133C262.658 26.0686 260.642 26.5106 258.82 27.4198C258.23 27.8671 257.764 28.4602 257.466 29.142C257.169 29.8238 257.051 30.5713 257.123 31.3125V32.5993Z" fill="white"/>
<path d="M277.176 67.3434C274.202 65.8469 271.732 63.4992 270.075 60.594C268.353 57.4581 267.491 53.9153 267.58 50.3316C267.488 46.7577 268.349 43.2243 270.075 40.1014C271.731 37.2275 274.19 34.9091 277.144 33.4356C280.503 31.8944 284.151 31.0969 287.841 31.0969C291.531 31.0969 295.178 31.8944 298.537 33.4356C301.494 34.9081 303.955 37.2266 305.613 40.1014C307.339 43.2243 308.2 46.7577 308.108 50.3316C308.197 53.9153 307.336 57.4581 305.613 60.594C303.92 63.5146 301.407 65.8634 298.391 67.3434C295.049 68.9053 291.409 69.7145 287.726 69.7145C284.043 69.7145 280.403 68.9053 277.061 67.3434H277.176ZM294.945 50.4474C294.945 44.2106 292.578 41.0922 287.844 41.0922C283.11 41.0922 280.739 44.2106 280.73 50.4474C280.73 56.6842 283.097 59.8026 287.831 59.8026C292.565 59.8026 294.935 56.6842 294.939 50.4474H294.945Z" fill="white"/>
<path d="M313.907 69.2737V15.8706H327.306V69.2737H313.907Z" fill="white"/>
<path d="M334.962 13.2969H348.998V25.5217H334.962V13.2969ZM334.962 69.1835V31.9558H348.36V69.2736L334.962 69.1835Z" fill="white"/>
<path d="M364.069 67.3434C361.095 65.8469 358.625 63.4992 356.968 60.594C355.245 57.4581 354.384 53.9153 354.473 50.3316C354.38 46.7577 355.242 43.2243 356.968 40.1014C358.624 37.2275 361.083 34.9091 364.037 33.4356C367.396 31.8944 371.043 31.0969 374.733 31.0969C378.424 31.0969 382.071 31.8944 385.43 33.4356C388.384 34.9091 390.843 37.2275 392.499 40.1014C394.225 43.2243 395.087 46.7577 394.994 50.3316C395.083 53.9153 394.222 57.4581 392.499 60.594C390.83 63.5015 388.35 65.8489 385.366 67.3434C382.024 68.9053 378.385 69.7145 374.702 69.7145C371.018 69.7145 367.379 68.9053 364.037 67.3434H364.069ZM381.838 50.6147C381.838 44.3779 379.471 41.2595 374.737 41.2595C370.003 41.2595 367.635 44.3779 367.635 50.6147C367.635 56.8515 370.003 59.9699 374.737 59.9699C379.471 59.9699 381.827 56.8515 381.806 50.6147H381.838Z" fill="white"/>
<path d="M75.2869 45.9178C75.4528 64.9177 61.4355 81.2218 42.7797 83.3643C42.3856 83.4085 41.9894 83.43 41.5929 83.4287C37.8796 83.4287 17.8074 83.4287 10.3936 83.1263C8.94989 82.9521 7.57768 82.3954 6.41663 81.5127C5.25558 80.63 4.34711 79.453 3.78369 78.1012C4.89327 78.5947 6.08199 78.8824 7.29282 78.9505C9.84491 79.1822 14.3494 78.9505 20.4935 78.9505C27.0332 78.9505 34.1025 79.0084 37.4904 79.0406C39.2985 79.0664 41.1052 78.9264 42.8881 78.6224C51.4589 77.1164 59.2763 72.7417 65.0786 66.2046C70.7141 59.9291 74.2808 52.0455 75.2869 43.6401V45.9178Z" fill="white"/>
<path d="M72.3135 37.7465C72.3575 47.0441 68.9583 56.0233 62.7814 62.9259C56.6046 69.8284 48.0951 74.1572 38.9194 75.0644H7.65626C5.51468 74.7528 3.55806 73.6678 2.14991 72.0111C0.741756 70.3544 -0.0221952 68.2385 -1.86847e-05 66.0566V9.43646C-1.86847e-05 4.93259 3.1901 0.428711 7.65626 0.428711H39.5574C48.6749 1.34389 57.1138 5.69595 63.1868 12.6147C69.2598 19.5335 72.5193 28.509 72.3135 37.7465Z" fill="white"/>
</g>
<defs>
<clipPath id="clip0_346_187">
<rect width="395" height="83" fill="white" transform="translate(0 0.428711)"/>
</clipPath>
</defs>
</svg>
