<svg width="179" height="130" viewBox="0 0 179 130" fill="none" xmlns="http://www.w3.org/2000/svg">
<g id="611a9e387d080fa68df0f888_Group481" clip-path="url(#clip0_172_1409)">
<path id="Vector_20" d="M28.8193 63.621C28.8193 70.345 31.7317 75.8824 36.1003 80.6285C38.8804 83.6609 42.1898 86.166 45.2348 88.9346C46.0291 89.5938 46.9557 90.1213 47.6176 90.9123C49.471 93.0217 48.9414 95.6585 46.4262 96.977C45.632 97.3725 44.8377 97.5043 44.0432 97.8998C34.644 101.723 27.7602 107.92 25.5097 118.335C25.1125 120.049 24.7154 121.632 24.3182 123.214C24.0534 124.268 23.6563 125.455 23.2591 126.51C22.7297 127.96 21.6706 129.015 19.9496 128.883C18.2286 128.751 17.302 127.696 16.9048 126.114C16.3753 124.136 15.9781 122.027 15.4486 119.917C14.1248 114.512 12.8009 109.106 10.1533 104.096C8.43231 100.669 6.1818 97.7681 2.87224 95.5267C-0.304951 93.4172 -0.437334 90.7804 2.47509 88.2755C4.85797 86.2977 7.63802 84.5839 10.1533 82.7381C16.1105 78.3872 19.5525 72.5863 20.082 65.0713C20.3469 63.8847 20.3469 62.3027 20.6115 60.7204C20.8763 57.6881 21.2734 57.2926 23.9211 57.1608C26.5688 56.897 28.025 57.9518 28.5544 60.3249C28.8193 61.3797 28.687 62.5662 28.8193 63.621Z" fill="#FCA311"/>
<path id="Vector_21" d="M141.777 83.5376C141.372 80.0353 141.236 76.3982 140.695 73.0306C139.749 67.3731 137.043 62.9279 131.904 60.099C127.575 57.809 123.247 55.7885 118.784 53.6333C117.431 52.9596 115.943 52.4209 114.591 51.7473C113.509 51.2086 112.832 50.2657 113.238 49.0533C113.509 48.2452 114.456 47.7063 115.132 47.0328C115.267 46.8981 115.538 46.8981 115.808 46.8981C126.493 44.7428 133.662 37.8727 138.531 28.7129C142.859 20.7653 146.376 12.4137 150.299 4.33148C150.84 3.11913 151.381 1.90679 152.057 0.963865C152.463 0.425049 153.545 -0.113769 154.221 0.0209354C154.897 0.15564 155.709 0.963865 155.844 1.77209C156.115 2.58032 155.979 3.65794 155.844 4.60088C155.574 6.48674 155.303 8.37259 154.897 10.3932C153.274 18.3407 154.897 26.0189 156.52 33.697C157.332 37.0646 159.361 39.4893 162.336 41.1058C166.124 43.1263 170.046 44.4734 174.239 45.4163C175.592 45.6857 177.485 45.6857 177.62 47.7063C177.756 49.8615 175.862 50.4004 174.374 50.8044C167.882 52.4209 163.283 56.7314 159.09 61.7155C154.762 66.8342 151.381 72.6265 149.217 78.9577C147.999 82.46 146.917 85.9623 145.7 89.3299C145.429 90.0033 145.429 90.677 145.023 91.0809C144.483 91.7546 143.536 92.6975 142.995 92.5628C142.318 92.428 141.777 91.3504 141.372 90.5422C141.101 90.0033 141.236 89.3299 141.236 88.6564C141.236 86.9052 141.236 85.1541 141.236 83.5376C141.507 83.5376 141.642 83.5376 141.777 83.5376Z" fill="#14213D"/>
</g>
<defs>
<clipPath id="clip0_172_1409">
<rect width="178" height="130" fill="white" transform="translate(0.385742)"/>
</clipPath>
</defs>
</svg>
