<svg width="505" height="15" viewBox="0 0 505 15" fill="none" xmlns="http://www.w3.org/2000/svg">
<path d="M503.96 5.82105C501.243 5.76832 498.354 5.84037 495.636 5.78764C438.513 5.00861 381.458 4.76158 324.251 5.49975C236.876 6.43938 149.401 8.03584 62.7806 11.9179C46.6118 12.6655 30.7315 13.492 14.8547 14.3185C12.2589 14.4694 10.1225 14.5743 7.69412 14.6003C4.34356 14.7183 1.50532 14.4619 0.374932 12.9578C-0.752067 11.4538 1.53638 10.3637 4.18513 9.88428C7.63821 9.10956 11.3799 8.41365 15.3607 8.12491C26.5549 7.22588 38.212 6.28094 49.4746 5.91392C177.115 1.18087 304.519 -1.04984 432.904 2.11834C454.936 2.61905 476.867 3.77653 498.848 4.60564C500.643 4.75025 502.438 4.89488 503.942 4.96066C504.062 5.16428 504.011 5.49267 503.96 5.82105Z" fill="#25D366"/>
</svg>
