<svg width="225" height="232" viewBox="0 0 225 232" fill="none" xmlns="http://www.w3.org/2000/svg">
<path d="M113.836 158.417C111.447 159.791 108.85 161.109 106.538 162.616C102.047 165.553 100.032 169.71 101.044 175.122C102.507 183.449 106.588 190.799 111.521 197.482C113.395 200.106 115.59 202.369 117.521 204.785C118.266 205.767 119.145 206.672 119.757 207.73C120.83 209.581 120.59 211.306 119.493 212.466C117.998 213.855 116.345 213.749 114.65 212.961C113.736 212.605 112.878 212.041 112.153 211.4C101.012 201.942 93.4335 190.081 90.9175 175.659C89.3578 166.859 92.8419 159.741 99.9455 154.595C102.446 152.804 105.365 151.124 108.096 149.73C120.079 143.54 129.407 134.293 137.264 123.424C141.892 117.059 143.987 109.682 143.99 101.746C143.951 93.1281 142.754 84.6483 141.159 76.3972C137.866 58.1913 134.496 39.853 131.545 21.6266C130.762 16.6109 130.72 11.3457 130.488 6.36536C130.406 5.00203 130.722 3.40964 131.191 2.08173C131.36 1.45595 132.344 0.712907 133.029 0.671992C133.712 0.631073 134.647 1.32772 135.03 1.98894C135.74 3.51995 136.45 5.05097 136.762 6.81104C139.297 16.9897 141.699 27.2447 144.025 37.3675C146.76 49.7233 149.362 62.1556 151.964 74.5878C153.692 82.7625 154.736 90.9779 154.963 99.3107C155.416 111.393 152.025 122.336 144.637 131.877C136.019 142.654 126.293 152.13 113.836 158.417Z" fill="#FCA311"/>
<path d="M83.457 198.819C85.6022 202.521 87.7473 206.224 89.8922 209.927C91.4244 212.572 91.415 214.693 89.6544 216.235C88.0264 217.701 85.5561 217.712 83.3248 215.998C82.314 215.169 81.2263 214.208 80.4807 213.226C71.3604 200.842 64.0415 187.597 60.8566 172.327C59.0876 163.47 58.8959 154.588 61.328 145.96C64.2646 135.454 70.9032 128.284 81.1108 124.526C85.4746 122.897 89.9915 121.532 94.1254 119.506C97.9938 117.633 101.709 115.495 104.985 112.904C111.67 107.647 114.527 100.361 113.671 91.8608C113.139 87.5829 112.209 83.5336 111.335 79.2759C107.537 62.9473 103.341 46.8476 100.911 30.4371C100.773 29.2823 100.502 28.204 100.573 27.1053C100.665 26.3471 101.154 25.36 101.685 25.0547C102.216 24.7494 103.472 25.0847 103.911 25.5373C105.228 26.8952 106.413 28.3294 107.123 29.8604C109.427 35.0587 111.786 40.0485 113.33 45.1555C116.707 56.7888 119.743 68.4426 122.779 80.0965C123.474 82.5178 123.904 85.0917 124.333 87.6656C126.763 104.076 120.09 116.379 106.485 125.266C100.534 129.042 93.7973 131.156 87.3461 133.457C85.9986 133.88 84.5951 134.511 83.2478 134.934C77.6133 137.118 74.0212 141.301 72.1648 146.953C70.0638 153.099 69.826 159.407 70.6906 165.786C72.1587 175.345 75.2395 184.328 79.7239 192.68C80.9496 194.795 82.0988 196.779 83.457 198.819C83.3244 198.895 83.3244 198.895 83.457 198.819Z" fill="#FCA311"/>
</svg>
