<svg xmlns="http://www.w3.org/2000/svg" viewBox="0 0 96 120" x="0px" y="0px"><g data-name="1"><path d="M22.64,44.74v8.55a25.49,25.49,0,0,1-4.1,13.34,8.33,8.33,0,0,0-1.11,5.67,8.49,8.49,0,0,0,8.39,7H70.18a8.49,8.49,0,0,0,8.39-7,8.33,8.33,0,0,0-1.11-5.67,25.49,25.49,0,0,1-4.1-13.34V44.74a25.39,25.39,0,0,0-18-24.26,8.91,8.91,0,1,0-14.74,0A25.39,25.39,0,0,0,22.64,44.74ZM44.09,15.48a3.91,3.91,0,1,1,4,3.9h-.2A3.91,3.91,0,0,1,44.09,15.48Zm3.78,8.91h.26A20.37,20.37,0,0,1,68.36,44.74v8.55a30.43,30.43,0,0,0,4.83,15.95,3.24,3.24,0,0,1,.44,2.27,3.44,3.44,0,0,1-3.45,2.76H25.82a3.44,3.44,0,0,1-3.45-2.76,3.24,3.24,0,0,1,.44-2.27,30.43,30.43,0,0,0,4.83-15.95V44.74A20.37,20.37,0,0,1,47.87,24.39ZM60.32,86.92a2.5,2.5,0,0,1-2.5,2.5H38.18a2.5,2.5,0,1,1,0-5H57.82A2.5,2.5,0,0,1,60.32,86.92Z"/></g><text x="0" y="111" fill="#000000" font-size="5px" font-weight="bold" font-family="'Helvetica Neue', Helvetica, Arial-Unicode, Arial, Sans-serif">Created by Ayu Tarena</text><text x="0" y="116" fill="#000000" font-size="5px" font-weight="bold" font-family="'Helvetica Neue', Helvetica, Arial-Unicode, Arial, Sans-serif">from the Noun Project</text></svg>